<?xml version="1.0" encoding="UTF-8"?>
<svg version="1.1" xmlns="http://www.w3.org/2000/svg" width="353" height="134">
<path d="M0 0 C116.49 0 232.98 0 353 0 C353 44.22 353 88.44 353 134 C236.51 134 120.02 134 0 134 C0 89.78 0 45.56 0 0 Z " fill="#010002" transform="translate(0,0)"/>
<path d="M0 0 C72.6 0 145.2 0 220 0 C220 5.94 220 11.88 220 18 C147.4 18 74.8 18 0 18 C0 12.06 0 6.12 0 0 Z " fill="#496FFD" transform="translate(114,98)"/>
<path d="M0 0 C5.12185906 2.02276318 7.12005436 6.17473093 9.984375 10.71484375 C11.12359779 12.46445549 12.26416106 14.21319534 13.40625 15.9609375 C13.9022168 16.74009521 14.39818359 17.51925293 14.90917969 18.32202148 C16.22047251 20.38919676 16.22047251 20.38919676 18.234375 22.27734375 C20.55500146 22.13202938 22.75828862 21.69875687 25.04296875 21.2734375 C27.234375 21.27734375 27.234375 21.27734375 29.015625 22.5625 C30.234375 24.27734375 30.234375 24.27734375 30.296875 27.27734375 C29.234375 30.27734375 29.234375 30.27734375 26.671875 32.15234375 C22.69374404 33.45427752 19.31532012 34.37371707 15.234375 33.27734375 C12.23480528 31.24946563 9.74165126 28.87879001 7.234375 26.27734375 C6.574375 25.61734375 5.914375 24.95734375 5.234375 24.27734375 C5.23072937 25.11592926 5.22708374 25.95451477 5.22332764 26.81851196 C5.18540915 34.73416401 5.12851282 42.64940566 5.05047226 50.56476784 C5.01101834 54.63385215 4.97881985 58.70272075 4.96337891 62.77197266 C4.94819824 66.70150225 4.91372864 70.6304387 4.86606598 74.55970383 C4.85126654 76.05629689 4.8433348 77.55297465 4.84249115 79.04964066 C4.84011519 81.15173292 4.81299021 83.25219426 4.78027344 85.35400391 C4.76694977 87.14603745 4.76694977 87.14603745 4.75335693 88.97427368 C4.01163094 93.69500242 1.90475107 96.92757729 -1.80078125 99.921875 C-2.46980469 100.30730469 -3.13882813 100.69273438 -3.828125 101.08984375 C-4.49972656 101.48816406 -5.17132813 101.88648437 -5.86328125 102.296875 C-12.3688385 105.64984188 -21.57680068 105.34782108 -28.578125 103.55859375 C-33.17326103 101.63360433 -36.57253204 99.1689258 -39.765625 95.27734375 C-40.97206066 91.65803677 -41.08831059 89.0850337 -40.765625 85.27734375 C-37.71389284 79.29125374 -33.66564818 76.37169212 -27.453125 74.02734375 C-21.36309764 72.78869412 -16.15015051 72.92291007 -10.10302734 74.29394531 C-8.88527115 74.56878754 -8.88527115 74.56878754 -7.64291382 74.84918213 C-7.02340851 74.99047546 -6.4039032 75.1317688 -5.765625 75.27734375 C-5.77228683 74.3819841 -5.77894867 73.48662445 -5.78581238 72.56413269 C-5.845884 64.13274526 -5.89157928 55.70142954 -5.92106152 47.26987743 C-5.93672811 42.9349525 -5.95798434 38.60020415 -5.99194336 34.26538086 C-6.02450164 30.08326287 -6.04247053 25.9013149 -6.05025673 21.71907997 C-6.05580662 20.12223953 -6.06664406 18.52540856 -6.08281517 16.92864037 C-6.10454308 14.69465281 -6.10759396 12.46137087 -6.10620117 10.22729492 C-6.11286301 8.95488449 -6.11952484 7.68247406 -6.12638855 6.37150574 C-5.765625 3.27734375 -5.765625 3.27734375 -4.41719055 1.36030579 C-2.765625 0.27734375 -2.765625 0.27734375 0 0 Z " fill="#AD53FA" transform="translate(47.765625,24.72265625)"/>
<path d="M0 0 C4.96481905 2.59372834 9.30211665 7.34251456 11.8046875 12.34765625 C12.28449051 18.48284229 12.72572955 24.29302399 10.1796875 29.97265625 C3.72146302 36.43088073 -3.73042211 39.34749071 -12.7578125 39.97265625 C-18.11934243 39.8222627 -20.90453543 38.05746882 -24.6015625 34.26953125 C-29.15468122 28.77900574 -29.81736008 24.23712662 -29.1953125 17.34765625 C-29.13730469 16.66316406 -29.07929688 15.97867187 -29.01953125 15.2734375 C-27.99655298 8.99999242 -24.02205018 5.2272605 -19.1953125 1.34765625 C-13.84732116 -2.10555409 -5.94465289 -1.76647159 0 0 Z " fill="#FF94FB" transform="translate(295.1953125,3.65234375)"/>
<path d="M0 0 C2.31 0 4.62 0 7 0 C7 1.98 7 3.96 7 6 C7.66 6 8.32 6 9 6 C9.33 4.35 9.66 2.7 10 1 C10.33 1 10.66 1 11 1 C11 2.98 11 4.96 11 7 C11.66 7 12.32 7 13 7 C13.33 6.34 13.66 5.68 14 5 C14 6.98 14 8.96 14 11 C14.45375 10.54625 14.9075 10.0925 15.375 9.625 C19 6 19 6 22.625 5.875 C24.295625 5.936875 24.295625 5.936875 26 6 C26 7.65 26 9.3 26 11 C28.33075929 10.04134491 28.33075929 10.04134491 30 7 C30.33 7.99 30.66 8.98 31 10 C39.91 10 48.82 10 58 10 C57.505 7.03 57.505 7.03 57 4 C57.66 3.67 58.32 3.34 59 3 C59 5.64 59 8.28 59 11 C59.62648437 10.91621094 60.25296875 10.83242187 60.8984375 10.74609375 C61.71570313 10.64425781 62.53296875 10.54242188 63.375 10.4375 C64.59316406 10.28087891 64.59316406 10.28087891 65.8359375 10.12109375 C68 10 68 10 70 11 C70.66 9.68 71.32 8.36 72 7 C72 8.32 72 9.64 72 11 C74.97 11 77.94 11 81 11 C81 10.34 81 9.68 81 9 C79.02 9 77.04 9 75 9 C75.33 8.34 75.66 7.68 76 7 C77.32 7 78.64 7 80 7 C80 6.34 80 5.68 80 5 C79.01 4.67 78.02 4.34 77 4 C79.475 3.505 79.475 3.505 82 3 C82 3.99 82 4.98 82 6 C83.32 6 84.64 6 86 6 C85.67 6.99 85.34 7.98 85 9 C84.01 9 83.02 9 82 9 C82 9.66 82 10.32 82 11 C83.98 10.34 85.96 9.68 88 9 C87.505 6.525 87.505 6.525 87 4 C90.3 4 93.6 4 97 4 C96.67 6.31 96.34 8.62 96 11 C101.1693489 10.59443869 101.1693489 10.59443869 106 9 C106.99 9.99 106.99 9.99 108 11 C108.66 10.01 109.32 9.02 110 8 C113.71439788 5.28563232 117.59134285 5.85304476 122 6 C122 7.65 122 9.3 122 11 C124.15960388 9.12113699 124.15960388 9.12113699 124.9375 6.4375 C125.288125 5.633125 125.63875 4.82875 126 4 C126.99 3.67 127.98 3.34 129 3 C128.67 5.64 128.34 8.28 128 11 C129.98 10.34 131.96 9.68 134 9 C134 9.66 134 10.32 134 11 C134.99 11 135.98 11 137 11 C137.33 9.68 137.66 8.36 138 7 C138 8.32 138 9.64 138 11 C140.64 11 143.28 11 146 11 C146 10.01 146 9.02 146 8 C145.01 7.505 145.01 7.505 144 7 C144.66 7 145.32 7 146 7 C146 6.34 146 5.68 146 5 C148.31 5 150.62 5 153 5 C153.33 6.98 153.66 8.96 154 11 C155.98 10.01 157.96 9.02 160 8 C160.33 8.66 160.66 9.32 161 10 C161.66 10 162.32 10 163 10 C163.33 8.35 163.66 6.7 164 5 C164.66 5 165.32 5 166 5 C165.67 6.98 165.34 8.96 165 11 C168.63 11 172.26 11 176 11 C176 10.34 176 9.68 176 9 C177.32 9 178.64 9 180 9 C180 9.66 180 10.32 180 11 C180.66 10.67 181.32 10.34 182 10 C182 7.69 182 5.38 182 3 C182.99 3.33 183.98 3.66 185 4 C184.67 6.31 184.34 8.62 184 11 C184.99 10.67 185.98 10.34 187 10 C190.1875 10.9375 190.1875 10.9375 193 12 C193 11.01 193 10.02 193 9 C191.02 8.505 191.02 8.505 189 8 C189.99 7.67 190.98 7.34 192 7 C192 6.01 192 5.02 192 4 C193.98 4.495 193.98 4.495 196 5 C195.34 6.98 194.68 8.96 194 11 C194.99 11 195.98 11 197 11 C197 10.01 197 9.02 197 8 C197.99 8 198.98 8 200 8 C200.99 9.485 200.99 9.485 202 11 C202.33 9.68 202.66 8.36 203 7 C204.65 7 206.3 7 208 7 C208.33 6.01 208.66 5.02 209 4 C209.99 4.99 209.99 4.99 211 6 C211.33 4.68 211.66 3.36 212 2 C214.64 2 217.28 2 220 2 C220 5.96 220 9.92 220 14 C147.4 14 74.8 14 0 14 C0 9.38 0 4.76 0 0 Z " fill="#DB4BF3" transform="translate(114,102)"/>
<path d="M0 0 C3.279375 -0.061875 6.55875 -0.12375 9.9375 -0.1875 C11.45911743 -0.22846802 11.45911743 -0.22846802 13.01147461 -0.27026367 C18.99336462 -0.32424871 24.62796495 0.14737625 30 3 C32.50884816 6.76327224 32.18853669 8.57015542 31.625 12.90234375 C31 15 31 15 28.4375 17.0625 C27.2309375 17.5265625 27.2309375 17.5265625 26 18 C26.78375 18.45375 27.5675 18.9075 28.375 19.375 C31 21 31 21 33 23 C33.46472261 28.57667136 33.16897267 32.18785631 30 37 C26.70265354 38.09911549 24.27041255 38.1139456 20.80078125 38.09765625 C19.71192627 38.09515869 18.62307129 38.09266113 17.5012207 38.09008789 C16.11894287 38.08098389 14.73666504 38.07187988 13.3125 38.0625 C8.919375 38.041875 4.52625 38.02125 0 38 C0 25.46 0 12.92 0 0 Z " fill="#A84AF6" transform="translate(99,50)"/>
<path d="M0 0 C1.09092453 -0.00137466 2.18184906 -0.00274933 3.30583191 -0.00416565 C4.49769608 -0.00057037 5.68956024 0.0030249 6.9175415 0.00672913 C8.80573357 0.00651009 8.80573357 0.00651009 10.73207092 0.00628662 C14.18008549 0.00599979 17.62806526 0.01187817 21.07607174 0.01886058 C24.68088034 0.02511301 28.28568974 0.02569941 31.89050293 0.02688599 C38.71503431 0.02999372 45.53954967 0.03819961 52.36407399 0.04823548 C60.13427062 0.05941391 67.90446802 0.06491143 75.6746707 0.06993091 C91.6570041 0.08038268 107.63932152 0.09797134 123.62164307 0.12025452 C122.96164307 2.43025452 122.30164307 4.74025452 121.62164307 7.12025452 C120.63164307 7.12025452 119.64164307 7.12025452 118.62164307 7.12025452 C118.29164307 5.80025452 117.96164307 4.48025452 117.62164307 3.12025452 C113.3091576 3.09095468 108.99669814 3.07335549 104.68414307 3.05775452 C103.47177979 3.04937561 102.2594165 3.0409967 101.01031494 3.03236389 C94.47415738 3.01465073 88.07761089 3.03170851 81.62164307 4.12025452 C81.29164307 4.78025452 80.96164307 5.44025452 80.62164307 6.12025452 C81.61164307 6.12025452 82.60164307 6.12025452 83.62164307 6.12025452 C83.62164307 6.78025452 83.62164307 7.44025452 83.62164307 8.12025452 C83.01836182 8.16923889 82.41508057 8.21822327 81.79351807 8.26869202 C80.99429932 8.34345764 80.19508057 8.41822327 79.37164307 8.49525452 C78.58273682 8.56486389 77.79383057 8.63447327 76.98101807 8.70619202 C72.9134799 9.4200315 70.3719221 11.09494758 67.62164307 14.12025452 C66.63164307 13.13025452 66.63164307 13.13025452 65.62164307 12.12025452 C65.29164307 12.45025452 64.96164307 12.78025452 64.62164307 13.12025452 C61.95105456 13.26140613 59.29732069 13.16272559 56.62164307 13.12025452 C56.62164307 11.14025452 56.62164307 9.16025452 56.62164307 7.12025452 C53.98164307 7.12025452 51.34164307 7.12025452 48.62164307 7.12025452 C49.11664307 9.10025452 49.11664307 9.10025452 49.62164307 11.12025452 C46.62164307 13.12025452 46.62164307 13.12025452 42.62164307 13.12025452 C42.62164307 12.46025452 42.62164307 11.80025452 42.62164307 11.12025452 C43.61164307 10.79025452 44.60164307 10.46025452 45.62164307 10.12025452 C45.95164307 9.46025452 46.28164307 8.80025452 46.62164307 8.12025452 C45.30164307 8.12025452 43.98164307 8.12025452 42.62164307 8.12025452 C42.62164307 7.13025452 42.62164307 6.14025452 42.62164307 5.12025452 C41.96164307 5.78025452 41.30164307 6.44025452 40.62164307 7.12025452 C40.62164307 7.78025452 40.62164307 8.44025452 40.62164307 9.12025452 C39.30164307 9.45025452 37.98164307 9.78025452 36.62164307 10.12025452 C39.09664307 10.61525452 39.09664307 10.61525452 41.62164307 11.12025452 C41.62164307 11.78025452 41.62164307 12.44025452 41.62164307 13.12025452 C34.28830973 13.12025452 26.9549764 13.12025452 19.62164307 13.12025452 C19.29164307 11.14025452 18.96164307 9.16025452 18.62164307 7.12025452 C18.62164307 8.77025452 18.62164307 10.42025452 18.62164307 12.12025452 C15.95986086 13.45114562 13.93424911 13.23294445 10.95758057 13.21791077 C9.83609619 13.21468811 8.71461182 13.21146545 7.55914307 13.20814514 C6.38351807 13.19976624 5.20789307 13.19138733 3.99664307 13.18275452 C2.81328369 13.1782428 1.62992432 13.17373108 0.41070557 13.16908264 C-2.519032 13.15726918 -5.44866966 13.14079709 -8.37835693 13.12025452 C-10.39761539 8.65784746 -10.32504996 5.94838893 -9.37835693 1.12025452 C-6.18600185 0.17534869 -3.32339268 -0.00323287 0 0 Z " fill="#5F65FE" transform="translate(153.37835693359375,99.87974548339844)"/>
<path d="M0 0 C3.63 0 7.26 0 11 0 C12 1 12 1 12.09765625 3.94140625 C12.08605469 5.13636719 12.07445312 6.33132812 12.0625 7.5625 C12.05347656 8.76003906 12.04445312 9.95757812 12.03515625 11.19140625 C12.02355469 12.11824219 12.01195312 13.04507813 12 14 C15.3 14 18.6 14 22 14 C22 9.38 22 4.76 22 0 C25.96 0 29.92 0 34 0 C34 12.54 34 25.08 34 38 C30.04 38 26.08 38 22 38 C22 32.72 22 27.44 22 22 C18.7 22 15.4 22 12 22 C12 27.61 12 33.22 12 39 C8.04 39 4.08 39 0 39 C0 26.13 0 13.26 0 0 Z " fill="#A748F5" transform="translate(228,50)"/>
<path d="M0 0 C3.1025883 2.14226335 4.2715856 3.27858463 5.625 6.8125 C5.90666331 10.16637977 5.94777998 13.4605541 5.625 16.8125 C4.625 17.8125 4.625 17.8125 0.80859375 17.91015625 C-0.77346682 17.90348089 -2.35551159 17.89151875 -3.9375 17.875 C-4.74380859 17.87048828 -5.55011719 17.86597656 -6.38085938 17.86132812 C-8.37893756 17.84950518 -10.37697783 17.83156914 -12.375 17.8125 C-11.715 18.8025 -11.055 19.7925 -10.375 20.8125 C-7.765379 21.19661275 -5.3691926 21.41543197 -2.75 21.5 C-2.04359375 21.53416016 -1.3371875 21.56832031 -0.609375 21.60351562 C1.13485688 21.68601308 2.87990395 21.75093335 4.625 21.8125 C4.625 24.1225 4.625 26.4325 4.625 28.8125 C-1.67950821 31.79194623 -9.83950119 32.26915655 -16.515625 30.125 C-20.26640765 27.85179839 -22.08587637 24.89472484 -23.375 20.8125 C-23.98476761 14.90302375 -24.18721759 9.69684481 -21.8125 4.1875 C-15.63085507 -1.83564121 -7.91323804 -2.78428746 0 0 Z " fill="#A749F5" transform="translate(159.375,58.1875)"/>
<path d="M0 0 C3.61356761 2.05477374 4.77933128 2.91932764 6.1875 6.8125 C6.41358031 10.16259915 6.36320517 13.46108651 6.1875 16.8125 C0.52107449 18.03767308 -5.04958518 17.90478867 -10.8125 17.8125 C-10.4825 18.8025 -10.1525 19.7925 -9.8125 20.8125 C-4.8625 21.1425 0.0875 21.4725 5.1875 21.8125 C5.5175 24.1225 5.8475 26.4325 6.1875 28.8125 C-0.6321345 31.41144607 -8.88839543 32.47787357 -15.94921875 30.08984375 C-19.27777253 28.01892994 -21.10467594 25.25709429 -22.8125 21.8125 C-23.54285021 16.18682945 -24.22744406 9.207189 -21.25 4.125 C-14.90344716 -1.89608859 -7.97286081 -2.48335009 0 0 Z " fill="#A84AF8" transform="translate(341.8125,58.1875)"/>
<path d="M0 0 C2.69692126 2.55114173 3.26189449 4.05361011 3.42602539 7.73120117 C3.42078857 8.72095947 3.41555176 9.71071777 3.41015625 10.73046875 C3.40693359 11.80361328 3.40371094 12.87675781 3.40039062 13.98242188 C3.39201172 15.10197266 3.38363281 16.22152344 3.375 17.375 C3.37048828 18.50615234 3.36597656 19.63730469 3.36132812 20.80273438 C3.34953498 23.59770927 3.3330765 26.3925782 3.3125 29.1875 C1.85457116 29.24149736 0.39607288 29.28029177 -1.0625 29.3125 C-2.28066406 29.34730469 -2.28066406 29.34730469 -3.5234375 29.3828125 C-5.6875 29.1875 -5.6875 29.1875 -7.6875 27.1875 C-8.1825 27.6825 -8.6775 28.1775 -9.1875 28.6875 C-12.64936051 30.76461631 -15.80555647 30.99623824 -19.6875 30.1875 C-23.31254028 27.64225895 -24.45886611 25.89880544 -25.8125 21.6875 C-25.6875 18.1875 -25.6875 18.1875 -23.375 15.3125 C-19.5740356 12.30708629 -17.84340326 12.0694081 -13.0625 12.125 C-11.55816406 12.13853516 -11.55816406 12.13853516 -10.0234375 12.15234375 C-9.25257813 12.16394531 -8.48171875 12.17554687 -7.6875 12.1875 C-7.6875 10.5375 -7.6875 8.8875 -7.6875 7.1875 C-12.6375 7.1875 -17.5875 7.1875 -22.6875 7.1875 C-22.6875 4.8775 -22.6875 2.5675 -22.6875 0.1875 C-15.82698503 -2.30723272 -6.5238162 -4.11284065 0 0 Z " fill="#A94AF9" transform="translate(193.6875,58.8125)"/>
<path d="M0 0 C3.96 0 7.92 0 12 0 C13.65 7.26 15.3 14.52 17 22 C18.27454508 15.50867868 18.27454508 15.50867868 19.54272461 9.01611328 C19.78261108 7.80544189 19.78261108 7.80544189 20.02734375 6.5703125 C20.27085571 5.32918701 20.27085571 5.32918701 20.51928711 4.06298828 C21 2 21 2 22 0 C25.96 0 29.92 0 34 0 C33.00442467 3.66790912 32.00300394 7.33411894 31 11 C30.69473389 12.12438477 30.69473389 12.12438477 30.38330078 13.27148438 C29.71710646 15.72355216 29.04634441 18.17433777 28.375 20.625 C28.15690674 21.43114746 27.93881348 22.23729492 27.71411133 23.06787109 C26.11361594 28.88638406 26.11361594 28.88638406 25 30 C22.30345146 30.07319621 19.63308542 30.09242537 16.9375 30.0625 C16.17888672 30.05798828 15.42027344 30.05347656 14.63867188 30.04882812 C12.75908129 30.0370068 10.87953101 30.01907078 9 30 C7.86727048 26.69009373 6.74527301 23.37664098 5.625 20.0625 C5.30789063 19.13630859 4.99078125 18.21011719 4.6640625 17.25585938 C2.74024236 11.54451834 1.19955148 5.9068823 0 0 Z " fill="#E64DF7" transform="translate(283,58)"/>
<path d="M0 0 C4.96481905 2.59372834 9.30211665 7.34251456 11.8046875 12.34765625 C12.28449051 18.48284229 12.72572955 24.29302399 10.1796875 29.97265625 C3.72146302 36.43088073 -3.73042211 39.34749071 -12.7578125 39.97265625 C-18.11934243 39.8222627 -20.90453543 38.05746882 -24.6015625 34.26953125 C-29.15468122 28.77900574 -29.81736008 24.23712662 -29.1953125 17.34765625 C-29.13730469 16.66316406 -29.07929688 15.97867187 -29.01953125 15.2734375 C-27.99655298 8.99999242 -24.02205018 5.2272605 -19.1953125 1.34765625 C-13.84732116 -2.10555409 -5.94465289 -1.76647159 0 0 Z M-21.5078125 10.97265625 C-24.40949582 15.05650685 -24.80102959 18.4153885 -24.1953125 23.34765625 C-22.86109714 27.80039908 -20.93539257 31.25362662 -17.0078125 33.84765625 C-12.20044316 36.15354647 -7.25859025 36.36473668 -2.20703125 34.6875 C1.71289138 32.74852328 4.2000327 30.25344995 6.1484375 26.33984375 C7.78113687 21.38343496 7.33535553 16.91017879 5.6796875 12.03515625 C2.83435574 7.95684739 -0.51956239 5.90623962 -5.1953125 4.34765625 C-12.65818385 3.73594548 -16.40697817 5.18251998 -21.5078125 10.97265625 Z " fill="#F3D9F2" transform="translate(295.1953125,3.65234375)"/>
<path d="M0 0 C2.97 0 5.94 0 9 0 C9 2.64 9 5.28 9 8 C11.31 8 13.62 8 16 8 C16 9.98 16 11.96 16 14 C13.69 14.33 11.38 14.66 9 15 C9 19.62 9 24.24 9 29 C10.98 29.66 12.96 30.32 15 31 C15 33.31 15 35.62 15 38 C11.07232406 39.96383797 6.28226501 39.47510337 2 39 C-0.65563802 37.1031157 -1.57242527 35.85514945 -3 33 C-3.08342159 31.55151418 -3.10732861 30.09929131 -3.09765625 28.6484375 C-3.09443359 27.79765625 -3.09121094 26.946875 -3.08789062 26.0703125 C-3.07951172 25.18085937 -3.07113281 24.29140625 -3.0625 23.375 C-3.05798828 22.4778125 -3.05347656 21.580625 -3.04882812 20.65625 C-3.03702591 18.43743352 -3.02056155 16.21874982 -3 14 C-4.65 14 -6.3 14 -8 14 C-8 12.02 -8 10.04 -8 8 C-7.236875 7.979375 -6.47375 7.95875 -5.6875 7.9375 C-2.58610882 7.20339051 -2.58610882 7.20339051 -1.1875 3.4375 C-0.795625 2.303125 -0.40375 1.16875 0 0 Z " fill="#A64AFA" transform="translate(208,50)"/>
<path d="M0 0 C0.64977814 -0.00095673 1.29955627 -0.00191345 1.96902466 -0.00289917 C3.34246925 -0.0035789 4.71591707 -0.00173904 6.08935547 0.00244141 C8.18073848 0.00777533 10.27190505 0.00249844 12.36328125 -0.00390625 C13.7005213 -0.00324509 15.03776122 -0.00196315 16.375 0 C17.58655762 0.00112793 18.79811523 0.00225586 20.04638672 0.00341797 C22.93505996 0.11758626 25.51515206 0.46516973 28.3203125 1.1328125 C28.3203125 2.1228125 28.3203125 3.1128125 28.3203125 4.1328125 C27.3303125 4.4628125 26.3403125 4.7928125 25.3203125 5.1328125 C25.8153125 7.1128125 25.8153125 7.1128125 26.3203125 9.1328125 C23.3203125 11.1328125 23.3203125 11.1328125 19.3203125 11.1328125 C19.3203125 10.4728125 19.3203125 9.8128125 19.3203125 9.1328125 C20.3103125 8.8028125 21.3003125 8.4728125 22.3203125 8.1328125 C22.6503125 7.4728125 22.9803125 6.8128125 23.3203125 6.1328125 C22.0003125 6.1328125 20.6803125 6.1328125 19.3203125 6.1328125 C19.3203125 5.1428125 19.3203125 4.1528125 19.3203125 3.1328125 C18.6603125 3.7928125 18.0003125 4.4528125 17.3203125 5.1328125 C17.3203125 5.7928125 17.3203125 6.4528125 17.3203125 7.1328125 C16.0003125 7.4628125 14.6803125 7.7928125 13.3203125 8.1328125 C15.7953125 8.6278125 15.7953125 8.6278125 18.3203125 9.1328125 C18.3203125 9.7928125 18.3203125 10.4528125 18.3203125 11.1328125 C10.98697917 11.1328125 3.65364583 11.1328125 -3.6796875 11.1328125 C-4.0096875 9.1528125 -4.3396875 7.1728125 -4.6796875 5.1328125 C-4.6796875 6.7828125 -4.6796875 8.4328125 -4.6796875 10.1328125 C-7.34146971 11.4637036 -9.36708146 11.24550243 -12.34375 11.23046875 C-13.46523437 11.22724609 -14.58671875 11.22402344 -15.7421875 11.22070312 C-16.9178125 11.21232422 -18.0934375 11.20394531 -19.3046875 11.1953125 C-20.48804688 11.19080078 -21.67140625 11.18628906 -22.890625 11.18164062 C-25.82036257 11.16982717 -28.75000022 11.15335508 -31.6796875 11.1328125 C-32.65560333 7.74963763 -32.53825405 5.5670787 -31.6796875 2.1328125 C-29.0396875 1.8028125 -26.3996875 1.4728125 -23.6796875 1.1328125 C-24.0096875 3.4428125 -24.3396875 5.7528125 -24.6796875 8.1328125 C-23.6896875 5.8228125 -22.6996875 3.5128125 -21.6796875 1.1328125 C-20.6896875 1.1328125 -19.6996875 1.1328125 -18.6796875 1.1328125 C-19.0096875 3.1128125 -19.3396875 5.0928125 -19.6796875 7.1328125 C-18.0296875 7.4628125 -16.3796875 7.7928125 -14.6796875 8.1328125 C-14.4115625 7.5346875 -14.1434375 6.9365625 -13.8671875 6.3203125 C-10.57964523 0.26431358 -6.53763785 0.00609773 0 0 Z " fill="#794DEC" transform="translate(176.6796875,101.8671875)"/>
<path d="M0 0 C2.31 0 4.62 0 7 0 C7 1.98 7 3.96 7 6 C7.66 6 8.32 6 9 6 C9.33 4.35 9.66 2.7 10 1 C10.33 1 10.66 1 11 1 C11 2.98 11 4.96 11 7 C11.66 7 12.32 7 13 7 C13.33 6.34 13.66 5.68 14 5 C14 6.98 14 8.96 14 11 C14.45375 10.54625 14.9075 10.0925 15.375 9.625 C19 6 19 6 22.625 5.875 C24.295625 5.936875 24.295625 5.936875 26 6 C26 7.65 26 9.3 26 11 C28.33075929 10.04134491 28.33075929 10.04134491 30 7 C30.33 7.99 30.66 8.98 31 10 C32.7015625 10.2165625 32.7015625 10.2165625 34.4375 10.4375 C38 11 38 11 39 12 C41.32724501 12.10998251 43.62545951 12.15495322 45.95375061 12.15821838 C46.68964446 12.16315636 47.42553831 12.16809434 48.18373197 12.17318195 C50.66813988 12.18863199 53.15252181 12.19693775 55.63696289 12.20532227 C57.41048921 12.2148949 59.18401322 12.22490461 60.95753479 12.23532104 C65.78788531 12.26244278 70.61824567 12.28341286 75.44863057 12.30332303 C80.49087283 12.32513791 85.53308451 12.35254853 90.57530212 12.37937927 C100.13048009 12.42936718 109.68567498 12.47428331 119.24088615 12.51740164 C130.11617605 12.56672201 140.99143527 12.62165936 151.86669552 12.67708123 C174.24443508 12.79099485 196.62220404 12.89781336 219 13 C219 13.33 219 13.66 219 14 C146.73 14 74.46 14 0 14 C0 9.38 0 4.76 0 0 Z " fill="#EE4EF8" transform="translate(114,102)"/>
<path d="M0 0 C5 1 5 1 6.40625 2.62890625 C6.7671875 3.26699219 7.128125 3.90507813 7.5 4.5625 C8.66641058 6.46324 8.66641058 6.46324 10 8 C12.71471005 8.58768383 12.71471005 8.58768383 15 8 C14.67 9.65 14.34 11.3 14 13 C11.1875 13.1875 11.1875 13.1875 8 13 C6.30078125 11.48828125 6.30078125 11.48828125 5 10 C4.98541748 10.89307861 4.97083496 11.78615723 4.95581055 12.70629883 C4.89472923 16.02217278 4.82057522 19.33721899 4.73754883 22.65258789 C4.70430999 24.08704628 4.67627465 25.52163513 4.65356445 26.95629883 C4.61999729 29.01960807 4.56768587 31.08172303 4.51171875 33.14453125 C4.48553467 34.38565674 4.45935059 35.62678223 4.43237305 36.90551758 C4 40 4 40 2.65551758 41.8659668 C-1.16455064 44.48272198 -5.53498657 44.62544935 -10 44 C-13 42.3125 -13 42.3125 -15 40 C-15.625 37.5 -15.625 37.5 -15 35 C-13.125 32.6875 -13.125 32.6875 -10 31 C-6.7 31 -3.4 31 0 31 C0 20.77 0 10.54 0 0 Z " fill="#8055F8" transform="translate(20,33)"/>
<path d="M0 0 C1.8125 0 1.8125 0 4 1 C4.96264727 2.79694158 5.92359935 4.59506033 6.8515625 6.41015625 C8.01604311 8.36639579 8.01604311 8.36639579 11.25 8.9375 C12.61125 8.9684375 12.61125 8.9684375 14 9 C13.67 10.32 13.34 11.64 13 13 C10.1875 13.1875 10.1875 13.1875 7 13 C5.30078125 11.48828125 5.30078125 11.48828125 4 10 C3.99383667 11.3317627 3.99383667 11.3317627 3.98754883 12.69042969 C3.96053347 15.99365201 3.91141956 19.29502339 3.84741211 22.59765625 C3.82425541 24.02527467 3.80984176 25.45306336 3.80444336 26.88085938 C3.79513508 28.93727413 3.75411728 30.99102027 3.70703125 33.046875 C3.6913208 34.28276367 3.67561035 35.51865234 3.65942383 36.79199219 C3 40 3 40 0.59838867 42.40136719 C-3.32345831 44.81424458 -6.53593418 44.79917272 -11 44 C-14.0625 42.3125 -14.0625 42.3125 -16 40 C-16.625 37.5 -16.625 37.5 -16 35 C-13.86244674 32.52845404 -12.2534997 31.17256592 -8.95703125 30.71875 C-6.05456362 30.67645539 -3.62778666 30.68610667 -1 32 C-1.00523682 31.06615479 -1.01047363 30.13230957 -1.01586914 29.17016602 C-1.0328762 25.71687204 -1.04543302 22.26362233 -1.05493164 18.81030273 C-1.05997121 17.31355082 -1.06680287 15.81680384 -1.07543945 14.32006836 C-1.08752159 12.17300193 -1.09323191 10.02600038 -1.09765625 7.87890625 C-1.10289307 6.5854126 -1.10812988 5.29191895 -1.11352539 3.95922852 C-1 1 -1 1 0 0 Z " fill="#C249F6" transform="translate(75,75)"/>
<path d="M0 0 C3.31232698 -0.08834684 6.62434435 -0.14083584 9.9375 -0.1875 C10.86369141 -0.21263672 11.78988281 -0.23777344 12.74414062 -0.26367188 C18.82048821 -0.32763343 24.53830222 0.09976411 30 3 C32.29013653 6.4352048 32.17842973 7.985331 32 12 C28.37 12 24.74 12 21 12 C20.34 13.32 19.68 14.64 19 16 C16.69 16 14.38 16 12 16 C11.34 14.68 10.68 13.36 10 12 C7.03 12 4.06 12 1 12 C0.01612321 7.94150823 -0.03924323 4.16468745 0 0 Z " fill="#7758F8" transform="translate(99,50)"/>
<path d="M0 0 C0.66 0 1.32 0 2 0 C3.11658501 4.68965706 2.80619523 7.53763531 1 12 C0.443125 11.608125 -0.11375 11.21625 -0.6875 10.8125 C-1.450625 10.544375 -2.21375 10.27625 -3 10 C-5.74832154 11.28184562 -5.74832154 11.28184562 -8 13 C-9 12 -9 12 -9.0625 8.9375 C-9.041875 7.968125 -9.02125 6.99875 -9 6 C-11.31 6 -13.62 6 -16 6 C-16 7.98 -16 9.96 -16 12 C-19.96 12 -23.92 12 -28 12 C-28 11.34 -28 10.68 -28 10 C-28.99 10.66 -29.98 11.32 -31 12 C-31.99 12 -32.98 12 -34 12 C-34 9.69 -34 7.38 -34 5 C-34.66 5 -35.32 5 -36 5 C-36.33 7.31 -36.66 9.62 -37 12 C-37.99 12 -38.98 12 -40 12 C-39.67 9.69 -39.34 7.38 -39 5 C-39.99 5 -40.98 5 -42 5 C-41.67 4.01 -41.34 3.02 -41 2 C-33.28847276 0.94351245 -25.71334179 0.88375947 -17.9375 0.9375 C-16.69033203 0.94201172 -15.44316406 0.94652344 -14.15820312 0.95117188 C-11.10541779 0.96286837 -8.05273502 0.97925914 -5 1 C-4.505 3.475 -4.505 3.475 -4 6 C-3.01 6 -2.02 6 -1 6 C-1.020625 5.195625 -1.04125 4.39125 -1.0625 3.5625 C-1 1 -1 1 0 0 Z " fill="#7D50F4" transform="translate(276,101)"/>
<path d="M0 0 C3.96 0 7.92 0 12 0 C12 9.9 12 19.8 12 30 C8.04 30 4.08 30 0 30 C0 20.1 0 10.2 0 0 Z " fill="#AB4BFC" transform="translate(268,58)"/>
<path d="M0 0 C3.63 0 7.26 0 11 0 C11 1.65 11 3.3 11 5 C15.455 4.505 15.455 4.505 20 4 C20.33 2.68 20.66 1.36 21 0 C24.63 0 28.26 0 32 0 C31.25 7.625 31.25 7.625 29 11 C25.76248322 12.07917226 23.42248229 12.11425601 20.01953125 12.09765625 C18.85615234 12.09443359 17.69277344 12.09121094 16.49414062 12.08789062 C15.27919922 12.07951172 14.06425781 12.07113281 12.8125 12.0625 C11.58595703 12.05798828 10.35941406 12.05347656 9.09570312 12.04882812 C6.06378135 12.03703076 3.0318846 12.01909514 0 12 C0 8.04 0 4.08 0 0 Z " fill="#E94DF8" transform="translate(100,76)"/>
<path d="M0 0 C1.51400391 0.01740234 1.51400391 0.01740234 3.05859375 0.03515625 C4.07050781 0.04417969 5.08242187 0.05320312 6.125 0.0625 C7.29869141 0.07990234 7.29869141 0.07990234 8.49609375 0.09765625 C8.16609375 1.74765625 7.83609375 3.39765625 7.49609375 5.09765625 C9.80609375 5.09765625 12.11609375 5.09765625 14.49609375 5.09765625 C14.49609375 3.44765625 14.49609375 1.79765625 14.49609375 0.09765625 C18.12609375 0.09765625 21.75609375 0.09765625 25.49609375 0.09765625 C25.49609375 4.05765625 25.49609375 8.01765625 25.49609375 12.09765625 C18.66015625 12.29296875 18.66015625 12.29296875 16.49609375 12.09765625 C15.83609375 11.43765625 15.17609375 10.77765625 14.49609375 10.09765625 C14.00109375 10.59265625 13.50609375 11.08765625 12.99609375 11.59765625 C9.53423324 13.67477256 6.37803728 13.90639449 2.49609375 13.09765625 C-1.29162982 10.43819077 -2.32465276 8.8658855 -3.37890625 4.34765625 C-3.42015625 3.27515625 -3.46140625 2.20265625 -3.50390625 1.09765625 C-2.50390625 0.09765625 -2.50390625 0.09765625 0 0 Z " fill="#E54DF7" transform="translate(171.50390625,75.90234375)"/>
<path d="M0 0 C3.74785043 2.08213913 4.79482295 3.2947039 6 7.4375 C6 11.39137798 5.38207721 12.91212214 3 16 C0.64141372 18.35858628 -0.07631948 18.36946499 -3.3125 18.5 C-7.23363639 18.4051338 -7.86895709 18.10964815 -11.0625 15.4375 C-13.29387054 11.47861678 -13.74474701 9.46848208 -13 5 C-9.45879206 0.3597965 -5.69730141 -0.56973014 0 0 Z " fill="#FF55F9" transform="translate(290,14)"/>
<path d="M0 0 C1.79093191 -0.08086147 3.58289628 -0.13912702 5.375 -0.1875 C6.87160156 -0.23970703 6.87160156 -0.23970703 8.3984375 -0.29296875 C9.25695312 -0.19628906 10.11546875 -0.09960938 11 0 C11.66 0.99 12.32 1.98 13 3 C15.609621 3.38411275 18.0058074 3.60293197 20.625 3.6875 C21.33140625 3.72166016 22.0378125 3.75582031 22.765625 3.79101562 C24.50985688 3.87351308 26.25490395 3.93843335 28 4 C28.33 6.31 28.66 8.62 29 11 C22.1803655 13.59894607 13.92410457 14.66537357 6.86328125 12.27734375 C3.58813687 10.23965946 1.56189662 7.47088138 0 4 C0 2.68 0 1.36 0 0 Z " fill="#E64CF3" transform="translate(319,76)"/>
<path d="M0 0 C1.79093191 -0.08086147 3.58289628 -0.13912702 5.375 -0.1875 C6.87160156 -0.23970703 6.87160156 -0.23970703 8.3984375 -0.29296875 C9.25695312 -0.19628906 10.11546875 -0.09960938 11 0 C11.66 0.99 12.32 1.98 13 3 C15.609621 3.38411275 18.0058074 3.60293197 20.625 3.6875 C21.33140625 3.72166016 22.0378125 3.75582031 22.765625 3.79101562 C24.50985688 3.87351308 26.25490395 3.93843335 28 4 C28 6.31 28 8.62 28 11 C21.69549179 13.97944623 13.53549881 14.45665655 6.859375 12.3125 C3.19324201 10.09060122 1.49462707 6.90263736 0 3 C0 2.01 0 1.02 0 0 Z " fill="#E44CF6" transform="translate(136,76)"/>
<path d="M0 0 C3.96 0 7.92 0 12 0 C12.50509208 2.24886238 13.00389179 4.49913869 13.5 6.75 C13.7784375 8.00296875 14.056875 9.2559375 14.34375 10.546875 C15 14 15 14 15 18 C10.05 18.495 10.05 18.495 5 19 C4.16142312 16.39741676 3.32896656 13.79314353 2.5 11.1875 C2.14228516 10.08051758 2.14228516 10.08051758 1.77734375 8.95117188 C0.80059864 5.86744804 0 3.25504191 0 0 Z " fill="#A849FA" transform="translate(283,58)"/>
<path d="M0 0 C3.96 0 7.92 0 12 0 C10.37727326 6.25908886 8.73384207 12.14176699 6 18 C3.03 18 0.06 18 -3 18 C-2.57045059 11.74892565 -1.98598493 5.95795479 0 0 Z " fill="#A849FA" transform="translate(305,58)"/>
<path d="M0 0 C3.3 0 6.6 0 10 0 C10.33 0.99 10.66 1.98 11 3 C14.00847418 4.22520264 14.00847418 4.22520264 17 5 C17 7.31 17 9.62 17 12 C13.05307557 13.97346221 8.30342753 13.43224974 4 13 C1.3125 11.5625 1.3125 11.5625 0 9 C-0.30236599 5.91798878 -0.18315882 3.11370002 0 0 Z " fill="#D54CFA" transform="translate(206,76)"/>
<path d="M0 0 C2.97 0 5.94 0 9 0 C9 2.64 9 5.28 9 8 C11.31 8 13.62 8 16 8 C16 9.98 16 11.96 16 14 C15.505 13.67515625 15.01 13.3503125 14.5 13.015625 C11.02427699 11.60361253 7.6900627 11.70989062 4 11.75 C3.2884375 11.74226563 2.576875 11.73453125 1.84375 11.7265625 C-1.92429832 11.74062238 -4.80489203 11.90321039 -8 14 C-8 12.02 -8 10.04 -8 8 C-7.236875 7.979375 -6.47375 7.95875 -5.6875 7.9375 C-2.58610882 7.20339051 -2.58610882 7.20339051 -1.1875 3.4375 C-0.795625 2.303125 -0.40375 1.16875 0 0 Z " fill="#7B54F6" transform="translate(208,50)"/>
<path d="M0 0 C2.64 0 5.28 0 8 0 C8 3.96 8 7.92 8 12 C-4.87 11.505 -4.87 11.505 -18 11 C-17.01 10.67 -16.02 10.34 -15 10 C-15 8.68 -15 7.36 -15 6 C-14.01 6 -13.02 6 -12 6 C-11.01 7.485 -11.01 7.485 -10 9 C-9.67 7.68 -9.34 6.36 -9 5 C-7.35 5 -5.7 5 -4 5 C-3.67 4.01 -3.34 3.02 -3 2 C-2.34 2.66 -1.68 3.32 -1 4 C-0.67 2.68 -0.34 1.36 0 0 Z " fill="#DD4DF8" transform="translate(326,104)"/>
<path d="M0 0 C-0.33 2.31 -0.66 4.62 -1 7 C-0.01 4.69 0.98 2.38 2 0 C2.99 0 3.98 0 5 0 C4.67 1.98 4.34 3.96 4 6 C5.65 6.33 7.3 6.66 9 7 C9.268125 6.401875 9.53625 5.80375 9.8125 5.1875 C11.00987475 2.98180967 12.04478984 1.56416813 14 0 C14.99 0 15.98 0 17 0 C17 3 17 3 14.5 5.6875 C13.675 6.450625 12.85 7.21375 12 8 C12.99 8 13.98 8 15 8 C15 8.66 15 9.32 15 10 C7.41 10 -0.18 10 -8 10 C-8.95904856 6.16380575 -8.91892116 4.67568464 -8 1 C-5.07175348 0.02391783 -3.04386724 -0.08226668 0 0 Z " fill="#220C2E" transform="translate(153,103)"/>
<path d="M0 0 C0.66 0.66 1.32 1.32 2 2 C4.43252661 2.46162427 4.43252661 2.46162427 7.125 2.625 C8.73375 2.74875 10.3425 2.8725 12 3 C12 6.96 12 10.92 12 15 C8.04 15 4.08 15 0 15 C0 10.05 0 5.1 0 0 Z " fill="#CF4BFB" transform="translate(250,73)"/>
<path d="M0 0 C3.96 0 7.92 0 12 0 C12 3.96 12 7.92 12 12 C10.046875 11.93489583 8.09375 11.86979167 6.140625 11.8046875 C3.57815832 11.90751009 3.57815832 11.90751009 0 14 C0 9.38 0 4.76 0 0 Z " fill="#755FF5" transform="translate(250,50)"/>
<path d="M0 0 C8.49609375 -0.09765625 8.49609375 -0.09765625 11 0 C12 1 12 1 12.09765625 3.94140625 C12.08605469 5.13636719 12.07445312 6.33132812 12.0625 7.5625 C12.05347656 8.76003906 12.04445312 9.95757812 12.03515625 11.19140625 C12.02355469 12.11824219 12.01195312 13.04507813 12 14 C11.42765625 13.67257813 10.8553125 13.34515625 10.265625 13.0078125 C7.85093158 11.93369025 6.36469462 11.78784351 3.75 11.875 C2.5125 11.91625 1.275 11.9575 0 12 C0 8.04 0 4.08 0 0 Z " fill="#7B59FF" transform="translate(228,50)"/>
<path d="M0 0 C3.63 0 7.26 0 11 0 C11 3.96 11 7.92 11 12 C7.37 12 3.74 12 0 12 C0 8.04 0 4.08 0 0 Z " fill="#ED4EF9" transform="translate(228,76)"/>
<path d="M0 0 C-0.66 1.98 -1.32 3.96 -2 6 C-1.34 6 -0.68 6 0 6 C0.226875 5.195625 0.45375 4.39125 0.6875 3.5625 C1.120625 2.716875 1.55375 1.87125 2 1 C4.625 0.1875 4.625 0.1875 7 0 C8.83691257 3.78187881 9.15837626 5.94568308 8 10 C7.34 10 6.68 10 6 10 C6 9.34 6 8.68 6 8 C4.68 8 3.36 8 2 8 C2 8.66 2 9.32 2 10 C-1.63 10 -5.26 10 -9 10 C-8.67 7.03 -8.34 4.06 -8 1 C-5.07175348 0.02391783 -3.04386724 -0.08226668 0 0 Z " fill="#271037" transform="translate(288,103)"/>
<path d="M0 0 C3.3 0 6.6 0 10 0 C11.82089479 3.64178957 11.05121113 8.00553148 11 12 C7.37 12 3.74 12 0 12 C0 8.04 0 4.08 0 0 Z " fill="#D64EFB" transform="translate(269,76)"/>
<path d="M0 0 C0.66 1.65 1.32 3.3 2 5 C2.33 3.68 2.66 2.36 3 1 C7.455 0.505 7.455 0.505 12 0 C12 0.66 12 1.32 12 2 C10.02 2.33 8.04 2.66 6 3 C6 3.66 6 4.32 6 5 C7.32 5.33 8.64 5.66 10 6 C9.401875 6.268125 8.80375 6.53625 8.1875 6.8125 C6.02775192 7.98493467 4.64209744 9.19369282 3 11 C2.34 10.34 1.68 9.68 1 9 C0.67 9.33 0.34 9.66 0 10 C-2.67058851 10.14115161 -5.32432238 10.04247107 -8 10 C-8.32899743 6.38102827 -8.44576634 4.60496861 -6.25 1.625 C-4 0 -4 0 0 0 Z " fill="#17091F" transform="translate(218,103)"/>
<path d="M0 0 C14.52 0 29.04 0 44 0 C44 0.33 44 0.66 44 1 C43.04287109 1.07347656 43.04287109 1.07347656 42.06640625 1.1484375 C41.24011719 1.22320312 40.41382813 1.29796875 39.5625 1.375 C38.73878906 1.44460937 37.91507813 1.51421875 37.06640625 1.5859375 C36.38449219 1.72257812 35.70257813 1.85921875 35 2 C34.67 2.66 34.34 3.32 34 4 C34.99 4 35.98 4 37 4 C37 4.66 37 5.32 37 6 C32.71 6 28.42 6 24 6 C24 5.34 24 4.68 24 4 C25.98 3.67 27.96 3.34 30 3 C30 2.34 30 1.68 30 1 C25.545 1.495 25.545 1.495 21 2 C21.33 3.32 21.66 4.64 22 6 C21.01 6.33 20.02 6.66 19 7 C18.67 5.02 18.34 3.04 18 1 C14.75016865 2.08784968 14.75016865 2.08784968 12 4 C9.66702567 4.04092937 7.33294775 4.04241723 5 4 C5 3.01 5 2.02 5 1 C3.35 1 1.7 1 0 1 C0 0.67 0 0.34 0 0 Z " fill="#7152F2" transform="translate(200,102)"/>
<path d="M0 0 C3.31232698 -0.08834684 6.62434435 -0.14083584 9.9375 -0.1875 C10.86369141 -0.21263672 11.78988281 -0.23777344 12.74414062 -0.26367188 C19.05554674 -0.33010773 24.15864318 0.59792142 30 3 C28 5 28 5 25.29443359 5.22705078 C24.17375488 5.21657715 23.05307617 5.20610352 21.8984375 5.1953125 C20.08085938 5.18564453 20.08085938 5.18564453 18.2265625 5.17578125 C16.95554687 5.15902344 15.68453125 5.14226563 14.375 5.125 C13.09625 5.11597656 11.8175 5.10695313 10.5 5.09765625 C7.33314833 5.07402303 4.16666576 5.04107629 1 5 C0.67 5.66 0.34 6.32 0 7 C0 4.69 0 2.38 0 0 Z " fill="#6264ED" transform="translate(99,50)"/>
<path d="M0 0 C1.9375 0.375 1.9375 0.375 4 1 C4.33 1.66 4.66 2.32 5 3 C5.598125 2.484375 6.19625 1.96875 6.8125 1.4375 C7.8953125 0.7259375 7.8953125 0.7259375 9 0 C9.99 0.33 10.98 0.66 12 1 C11.67 4.3 11.34 7.6 11 11 C10.01 11.33 9.02 11.66 8 12 C8 10.35 8 8.7 8 7 C2.99150873 7.19859979 2.99150873 7.19859979 -0.8125 10.0625 C-1.204375 10.701875 -1.59625 11.34125 -2 12 C-2.66 12 -3.32 12 -4 12 C-4.50423019 6.70558305 -3.18923033 4.18586481 0 0 Z " fill="#090612" transform="translate(132,101)"/>
<path d="M0 0 C0.78375 0.185625 1.5675 0.37125 2.375 0.5625 C4.97089775 1.25962266 4.97089775 1.25962266 7 0 C8.54023996 -0.06950541 10.08334988 -0.08452357 11.625 -0.0625 C12.85089844 -0.04896484 12.85089844 -0.04896484 14.1015625 -0.03515625 C15.04128906 -0.01775391 15.04128906 -0.01775391 16 0 C16 0.66 16 1.32 16 2 C14.35 2.33 12.7 2.66 11 3 C10.67 5.31 10.34 7.62 10 10 C9.01 10 8.02 10 7 10 C7.33 8.02 7.66 6.04 8 4 C7.01 3.67 6.02 3.34 5 3 C5 3.99 5 4.98 5 6 C4.01 6.495 4.01 6.495 3 7 C3.99 7.33 4.98 7.66 6 8 C6 8.99 6 9.98 6 11 C3.03 10.67 0.06 10.34 -3 10 C-3 7.69 -3 5.38 -3 3 C-2.01 2.67 -1.02 2.34 0 2 C0 1.34 0 0.68 0 0 Z " fill="#11081A" transform="translate(301,103)"/>
<path d="M0 0 C3.3 0 6.6 0 10 0 C10.33 1.65 10.66 3.3 11 5 C11.99 5 12.98 5 14 5 C14 3.35 14 1.7 14 0 C14.99 0.33 15.98 0.66 17 1 C16.67 3.97 16.34 6.94 16 10 C15.01 10 14.02 10 13 10 C13 9.34 13 8.68 13 8 C12.01 8.66 11.02 9.32 10 10 C9.01 10 8.02 10 7 10 C7 7.69 7 5.38 7 3 C6.34 3 5.68 3 5 3 C4.67 5.31 4.34 7.62 4 10 C3.01 10 2.02 10 1 10 C1.33 7.69 1.66 5.38 2 3 C1.01 3 0.02 3 -1 3 C-0.67 2.01 -0.34 1.02 0 0 Z " fill="#150A21" transform="translate(235,103)"/>
<path d="M0 0 C0.99 0 1.98 0 3 0 C2.67 2.31 2.34 4.62 2 7 C-1.07322544 7.91058531 -3.80097361 8.08886184 -7 8 C-7.33 9.65 -7.66 11.3 -8 13 C-8.66 12.67 -9.32 12.34 -10 12 C-10 11.01 -10 10.02 -10 9 C-10.99 8.67 -11.98 8.34 -13 8 C-12.67 7.01 -12.34 6.02 -12 5 C-10.35 4.67 -8.7 4.34 -7 4 C-7 3.01 -7 2.02 -7 1 C-3.375 -1.125 -3.375 -1.125 0 0 Z " fill="#813ECF" transform="translate(324,101)"/>
<path d="M0 0 C0.66 0 1.32 0 2 0 C3.11658501 4.68965706 2.80619523 7.53763531 1 12 C0.443125 11.608125 -0.11375 11.21625 -0.6875 10.8125 C-1.450625 10.544375 -2.21375 10.27625 -3 10 C-5.74832154 11.28184562 -5.74832154 11.28184562 -8 13 C-9.36884358 8.48281619 -8.47075246 5.41225737 -7 1 C-6.01 1.33 -5.02 1.66 -4 2 C-4 3.32 -4 4.64 -4 6 C-3.01 6 -2.02 6 -1 6 C-1.020625 5.195625 -1.04125 4.39125 -1.0625 3.5625 C-1 1 -1 1 0 0 Z " fill="#0E0616" transform="translate(276,101)"/>
<path d="M0 0 C0.54011719 0.48855469 1.08023438 0.97710937 1.63671875 1.48046875 C1.30671875 2.14046875 0.97671875 2.80046875 0.63671875 3.48046875 C-6.29328125 3.48046875 -13.22328125 3.48046875 -20.36328125 3.48046875 C-20.69328125 4.80046875 -21.02328125 6.12046875 -21.36328125 7.48046875 C-21.36328125 5.17046875 -21.36328125 2.86046875 -21.36328125 0.48046875 C-15.00731669 -1.83079109 -5.97421887 -3.84127461 0 0 Z " fill="#7D53EE" transform="translate(192.36328125,58.51953125)"/>
<path d="M0 0 C0.33 0 0.66 0 1 0 C1 2.64 1 5.28 1 8 C1.62648437 7.91621094 2.25296875 7.83242187 2.8984375 7.74609375 C4.12433594 7.59333984 4.12433594 7.59333984 5.375 7.4375 C6.18710938 7.33308594 6.99921875 7.22867188 7.8359375 7.12109375 C10 7 10 7 12 8 C12.66 6.68 13.32 5.36 14 4 C14.495 6.97 14.495 6.97 15 10 C3.78 10 -7.44 10 -19 10 C-19 9.01 -19 8.02 -19 7 C-12.73 7 -6.46 7 0 7 C-0.33 5.02 -0.66 3.04 -1 1 C-0.67 0.67 -0.34 0.34 0 0 Z " fill="#CF47EB" transform="translate(172,105)"/>
<path d="M0 0 C0.97646484 0.00644531 1.95292969 0.01289062 2.95898438 0.01953125 C3.96638672 0.03628906 4.97378906 0.05304688 6.01171875 0.0703125 C7.03845703 0.07933594 8.06519531 0.08835937 9.12304688 0.09765625 C11.64867774 0.12115049 14.17382685 0.15400119 16.69921875 0.1953125 C14.01812114 1.58054626 11.61894818 2.46538014 8.69921875 3.1953125 C7.35124445 3.83185592 6.01325151 4.49136638 4.69921875 5.1953125 C4.36921875 4.2053125 4.03921875 3.2153125 3.69921875 2.1953125 C1.74922746 2.39002361 1.74922746 2.39002361 -0.30078125 3.1953125 C-1.58514859 5.1790892 -1.58514859 5.1790892 -2.30078125 7.1953125 C-2.96078125 7.1953125 -3.62078125 7.1953125 -4.30078125 7.1953125 C-4.30078125 7.8553125 -4.30078125 8.5153125 -4.30078125 9.1953125 C-4.96078125 9.1953125 -5.62078125 9.1953125 -6.30078125 9.1953125 C-6.63078125 8.2053125 -6.96078125 7.2153125 -7.30078125 6.1953125 C-7.63078125 6.8553125 -7.96078125 7.5153125 -8.30078125 8.1953125 C-8.96078125 8.1953125 -9.62078125 8.1953125 -10.30078125 8.1953125 C-10.30078125 6.2153125 -10.30078125 4.2353125 -10.30078125 2.1953125 C-6.70642131 0.5581651 -3.94101657 -0.04609376 0 0 Z " fill="#5E61FA" transform="translate(131.30078125,99.8046875)"/>
<path d="M0 0 C1.79093191 -0.08086147 3.58289628 -0.13912702 5.375 -0.1875 C6.87160156 -0.23970703 6.87160156 -0.23970703 8.3984375 -0.29296875 C9.25695312 -0.19628906 10.11546875 -0.09960938 11 0 C11.66 0.99 12.32 1.98 13 3 C15.609621 3.38411275 18.0058074 3.60293197 20.625 3.6875 C21.33140625 3.72166016 22.0378125 3.75582031 22.765625 3.79101562 C24.50985688 3.87351308 26.25490395 3.93843335 28 4 C28 4.33 28 4.66 28 5 C18.97746114 5.83930594 10.0598059 6.12224626 1 6 C0.67 4.02 0.34 2.04 0 0 Z " fill="#CD4BF0" transform="translate(319,76)"/>
<path d="M0 0 C6.6 0 13.2 0 20 0 C18.35 1.32 16.7 2.64 15 4 C14.525625 4.7425 14.05125 5.485 13.5625 6.25 C12 8 12 8 8.8125 8.25 C7.884375 8.1675 6.95625 8.085 6 8 C6.66 5.69 7.32 3.38 8 1 C7.01 1 6.02 1 5 1 C4.87625 1.763125 4.7525 2.52625 4.625 3.3125 C4 6 4 6 2 9 C1.34 8.34 0.68 7.68 0 7 C0.66 7 1.32 7 2 7 C2 6.34 2 5.68 2 5 C1.01 4.67 0.02 4.34 -1 4 C-0.01 3.67 0.98 3.34 2 3 C2.33 2.34 2.66 1.68 3 1 C2.01 0.67 1.02 0.34 0 0 Z " fill="#6C5BFA" transform="translate(150,102)"/>
<path d="M0 0 C1.79093191 -0.08086147 3.58289628 -0.13912702 5.375 -0.1875 C6.87160156 -0.23970703 6.87160156 -0.23970703 8.3984375 -0.29296875 C9.25695312 -0.19628906 10.11546875 -0.09960938 11 0 C11.66 0.99 12.32 1.98 13 3 C15.609621 3.38411275 18.0058074 3.60293197 20.625 3.6875 C21.33140625 3.72166016 22.0378125 3.75582031 22.765625 3.79101562 C24.50985688 3.87351308 26.25490395 3.93843335 28 4 C28 4.33 28 4.66 28 5 C18.97746114 5.83930594 10.0598059 6.12224626 1 6 C0.67 4.02 0.34 2.04 0 0 Z " fill="#CC4BEF" transform="translate(136,76)"/>
<path d="M0 0 C6.0546875 -0.1953125 6.0546875 -0.1953125 8 0 C10 2 10 2 10.1875 5.0625 C10 8 10 8 9 9 C5.99668982 9.14193337 3.00782866 9.04236378 0 9 C0 6.03 0 3.06 0 0 Z " fill="#08030B" transform="translate(111,72)"/>
<path d="M0 0 C2 2 2 2 2.25 5 C2 8 2 8 0 10 C-2.84602594 10.36487512 -4.3864306 10.40199375 -6.8125 8.8125 C-8.41501866 6.36655047 -8.4409511 4.86618213 -8 2 C-4.77626323 -0.14915785 -3.73296326 -0.38286803 0 0 Z " fill="#9FA3E1" transform="translate(277,44)"/>
<path d="M0 0 C0.804375 0.495 1.60875 0.99 2.4375 1.5 C-1.90465413 4.39476942 -6.74688161 3.60201516 -11.71875 3.421875 C-15.52740102 3.33660669 -18.33436001 3.34790667 -21.5625 5.5 C-20.54735266 2.2289697 -19.52998264 1.48141865 -16.5 -0.25 C-10.8160453 -2.40516616 -5.57565102 -2.34764254 0 0 Z " fill="#7D52EF" transform="translate(159.5625,58.5)"/>
<path d="M0 0 C-2 2 -2 2 -4.15478516 2.22705078 C-5.02409668 2.21657715 -5.8934082 2.20610352 -6.7890625 2.1953125 C-7.73007812 2.18886719 -8.67109375 2.18242188 -9.640625 2.17578125 C-10.62546875 2.15902344 -11.6103125 2.14226563 -12.625 2.125 C-13.61757813 2.11597656 -14.61015625 2.10695313 -15.6328125 2.09765625 C-18.08878134 2.07404116 -20.54427168 2.04110799 -23 2 C-16.18352292 -5.04181517 -8.34657777 -4.17328888 0 0 Z " fill="#8055F3" transform="translate(345,60)"/>
<path d="M0 0 C3.63 0 7.26 0 11 0 C11 1.65 11 3.3 11 5 C13.64 5 16.28 5 19 5 C19 5.33 19 5.66 19 6 C12.73 6 6.46 6 0 6 C0 4.02 0 2.04 0 0 Z " fill="#D24DF6" transform="translate(100,76)"/>
<path d="M0 0 C3.96 0 7.92 0 12 0 C11.67 1.32 11.34 2.64 11 4 C9.88625 3.979375 8.7725 3.95875 7.625 3.9375 C4.16784079 3.73619282 4.16784079 3.73619282 2 5 C1.67 13.25 1.34 21.5 1 30 C0.67 30 0.34 30 0 30 C0 20.1 0 10.2 0 0 Z " fill="#8951E0" transform="translate(268,58)"/>
<path d="M0 0 C7.92 0 15.84 0 24 0 C23.01 0.495 23.01 0.495 22 1 C22 1.66 22 2.32 22 3 C20.02 3 18.04 3 16 3 C16 2.34 16 1.68 16 1 C14.35 1.33 12.7 1.66 11 2 C10.34 4.31 9.68 6.62 9 9 C8.01 8.34 7.02 7.68 6 7 C6.33 6.34 6.66 5.68 7 5 C6.01 4.67 5.02 4.34 4 4 C4.639375 3.87625 5.27875 3.7525 5.9375 3.625 C6.9584375 3.315625 6.9584375 3.315625 8 3 C8.33 2.34 8.66 1.68 9 1 C6.36 1.33 3.72 1.66 1 2 C0.67 2.99 0.34 3.98 0 5 C0 3.35 0 1.7 0 0 Z " fill="#7A51F1" transform="translate(279,102)"/>
<path d="M0 0 C0.69609375 0.06960937 1.3921875 0.13921875 2.109375 0.2109375 C3.346875 0.3346875 4.584375 0.4584375 5.859375 0.5859375 C5.859375 2.2359375 5.859375 3.8859375 5.859375 5.5859375 C8.19013429 4.62728241 8.19013429 4.62728241 9.859375 1.5859375 C10.189375 2.5759375 10.519375 3.5659375 10.859375 4.5859375 C13.334375 5.0809375 13.334375 5.0809375 15.859375 5.5859375 C15.859375 5.9159375 15.859375 6.2459375 15.859375 6.5859375 C8.599375 6.5859375 1.339375 6.5859375 -6.140625 6.5859375 C-2.140625 0.5859375 -2.140625 0.5859375 0 0 Z " fill="#CB4BEC" transform="translate(134.140625,107.4140625)"/>
<path d="M0 0 C5.28 0 10.56 0 16 0 C16 1.32 16 2.64 16 4 C12.04 4 8.08 4 4 4 C3.67 4.66 3.34 5.32 3 6 C1.5 4.6875 1.5 4.6875 0 3 C0 2.01 0 1.02 0 0 Z " fill="#E74DF7" transform="translate(206,82)"/>
<path d="M0 0 C-0.350625 0.598125 -0.70125 1.19625 -1.0625 1.8125 C-2.33304698 4.10813214 -2.33304698 4.10813214 -1 7 C-1 7.99 -1 8.98 -1 10 C-3.64 10 -6.28 10 -9 10 C-8.67 7.03 -8.34 4.06 -8 1 C-5.07175348 0.02391783 -3.04386724 -0.08226668 0 0 Z " fill="#120C22" transform="translate(261,103)"/>
<path d="M0 0 C3.63 0 7.26 0 11 0 C11 1.98 11 3.96 11 6 C7.37 6 3.74 6 0 6 C0 4.02 0 2.04 0 0 Z " fill="#D54CFB" transform="translate(228,76)"/>
<path d="M0 0 C1.37478516 0.01740234 1.37478516 0.01740234 2.77734375 0.03515625 C3.69644531 0.04417969 4.61554688 0.05320312 5.5625 0.0625 C6.27277344 0.07410156 6.98304688 0.08570312 7.71484375 0.09765625 C7.71484375 2.07765625 7.71484375 4.05765625 7.71484375 6.09765625 C4.08484375 6.09765625 0.45484375 6.09765625 -3.28515625 6.09765625 C-3.28515625 0.14039129 -3.28515625 0.14039129 0 0 Z " fill="#ED4EF9" transform="translate(254.28515625,81.90234375)"/>
<path d="M0 0 C3.3 0 6.6 0 10 0 C10.33 1.98 10.66 3.96 11 6 C7.37 6 3.74 6 0 6 C0 4.02 0 2.04 0 0 Z " fill="#EC4EF8" transform="translate(269,82)"/>
<path d="M0 0 C2.64 0 5.28 0 8 0 C8.04241723 2.33294775 8.04092937 4.66702567 8 7 C7 8 7 8 3.4375 8.0625 C2.303125 8.041875 1.16875 8.02125 0 8 C0 5.36 0 2.72 0 0 Z " fill="#0B0614" transform="translate(111,58)"/>
<path d="M0 0 C1.81242052 -0.02687279 3.62495233 -0.04633715 5.4375 -0.0625 C6.44683594 -0.07410156 7.45617187 -0.08570313 8.49609375 -0.09765625 C11 0 11 0 12 1 C12.07258946 3.18639453 12.08373783 5.37500389 12.0625 7.5625 C12.05347656 8.76003906 12.04445312 9.95757812 12.03515625 11.19140625 C12.02355469 12.11824219 12.01195312 13.04507813 12 14 C11.67 14 11.34 14 11 14 C10.67 11.03 10.34 8.06 10 5 C6.7 5 3.4 5 0 5 C0 3.35 0 1.7 0 0 Z " fill="#5F5DE0" transform="translate(228,50)"/>
<path d="M0 0 C2.71675995 0.36712972 4.61063713 0.72744599 6.875 2.3125 C8 4 8 4 7.875 6.0625 C7 8 7 8 4 10 C2.68 10 1.36 10 0 10 C0 6.7 0 3.4 0 0 Z " fill="#180B27" transform="translate(173,103)"/>
<path d="M0 0 C13.86 0 27.72 0 42 0 C38.98082379 2.01278414 37.95409238 2.29192943 34.5 2.5625 C31.72110398 2.78944318 29.67744737 3.10751754 27 4 C26.34 3.34 25.68 2.68 25 2 C22.3784358 1.72172748 22.3784358 1.72172748 19.3359375 1.8046875 C17.65371094 1.81435547 17.65371094 1.81435547 15.9375 1.82421875 C14.761875 1.84097656 13.58625 1.85773438 12.375 1.875 C11.19164062 1.88402344 10.00828125 1.89304687 8.7890625 1.90234375 C5.85917477 1.92597188 2.9296866 1.95891486 0 2 C0 1.34 0 0.68 0 0 Z " fill="#635FF8" transform="translate(278,101)"/>
<path d="M0 0 C2.31 0 4.62 0 7 0 C7 1.98 7 3.96 7 6 C7.66 6 8.32 6 9 6 C9.33 4.35 9.66 2.7 10 1 C10.33 1 10.66 1 11 1 C11 2.98 11 4.96 11 7 C7.37 7 3.74 7 0 7 C0 4.69 0 2.38 0 0 Z " fill="#7F4CE6" transform="translate(114,102)"/>
<path d="M0 0 C2.64 0 5.28 0 8 0 C8 1.98 8 3.96 8 6 C4.04 6 0.08 6 -4 6 C-3.67 4.68 -3.34 3.36 -3 2 C-2.34 2.66 -1.68 3.32 -1 4 C-0.67 2.68 -0.34 1.36 0 0 Z " fill="#AE48FB" transform="translate(326,104)"/>
<path d="M0 0 C3.3 0 6.6 0 10 0 C10.33 1.65 10.66 3.3 11 5 C10.01 5 9.02 5 8 5 C7.67 4.34 7.34 3.68 7 3 C6.34 3 5.68 3 5 3 C4.67 5.31 4.34 7.62 4 10 C3.01 10 2.02 10 1 10 C1.33 7.69 1.66 5.38 2 3 C1.01 3 0.02 3 -1 3 C-0.67 2.01 -0.34 1.02 0 0 Z " fill="#0F0A1E" transform="translate(235,103)"/>
<path d="M0 0 C0 0.66 0 1.32 0 2 C-0.66 2.66 -1.32 3.32 -2 4 C-2 4.66 -2 5.32 -2 6 C-3.32 6.33 -4.64 6.66 -6 7 C-4.35 7.33 -2.7 7.66 -1 8 C-1 8.66 -1 9.32 -1 10 C-3.64 10 -6.28 10 -9 10 C-8.67 7.03 -8.34 4.06 -8 1 C-5.07175348 0.02391783 -3.04386724 -0.08226668 0 0 Z " fill="#0B0715" transform="translate(196,103)"/>
<path d="M0 0 C0 0.99 0 1.98 0 3 C-0.99 3.33 -1.98 3.66 -3 4 C-2.67 5.32 -2.34 6.64 -2 8 C-5 10 -5 10 -9 10 C-9 9.34 -9 8.68 -9 8 C-8.01 7.67 -7.02 7.34 -6 7 C-5.67 6.34 -5.34 5.68 -5 5 C-6.32 5 -7.64 5 -9 5 C-8.625 3.0625 -8.625 3.0625 -8 1 C-5.29120665 -0.35439668 -2.99066732 -0.06501451 0 0 Z " fill="#080510" transform="translate(205,103)"/>
<path d="M0 0 C0 0.99 0 1.98 0 3 C1.32 3 2.64 3 4 3 C3.67 3.99 3.34 4.98 3 6 C2.01 6 1.02 6 0 6 C0 6.66 0 7.32 0 8 C1.98 7.67 3.96 7.34 6 7 C5.67 7.66 5.34 8.32 5 9 C0.38 9 -4.24 9 -9 9 C-9 8.67 -9 8.34 -9 8 C-6.36 8 -3.72 8 -1 8 C-1 7.34 -1 6.68 -1 6 C-2.98 6 -4.96 6 -7 6 C-6.67 5.34 -6.34 4.68 -6 4 C-4.68 4 -3.36 4 -2 4 C-2 3.34 -2 2.68 -2 2 C-2.99 1.67 -3.98 1.34 -5 1 C-2 0 -2 0 0 0 Z " fill="#953AC4" transform="translate(196,105)"/>
<path d="M0 0 C6.6 0 13.2 0 20 0 C19.67 0.66 19.34 1.32 19 2 C15.48262679 3.17245774 12.6424868 3.13266285 8.9375 3.125 C7.68839844 3.12757812 6.43929687 3.13015625 5.15234375 3.1328125 C2 3 2 3 0 2 C0 1.34 0 0.68 0 0 Z " fill="#EB4AEE" transform="translate(143,86)"/>
<path d="M0 0 C2.97 0 5.94 0 9 0 C9 2.64 9 5.28 9 8 C8.443125 7.2265625 8.443125 7.2265625 7.875 6.4375 C5.9860492 4.65637529 5.9860492 4.65637529 2.9375 5.25 C0.09084979 5.86622224 0.09084979 5.86622224 -2 7 C-1.34 4.69 -0.68 2.38 0 0 Z " fill="#5858DD" transform="translate(208,50)"/>
<path d="M0 0 C1.65 0.33 3.3 0.66 5 1 C5 3.31 5 5.62 5 8 C2.35541621 9.32229189 0.32238699 9.09677194 -2.625 9.0625 C-3.62789062 9.05347656 -4.63078125 9.04445313 -5.6640625 9.03515625 C-6.43492187 9.02355469 -7.20578125 9.01195313 -8 9 C-8 8.01 -8 7.02 -8 6 C-4.04 6 -0.08 6 4 6 C4 4.68 4 3.36 4 2 C2.68 2 1.36 2 0 2 C0 1.34 0 0.68 0 0 Z " fill="#D242D9" transform="translate(218,80)"/>
<path d="M0 0 C3.63 0 7.26 0 11 0 C11 1.32 11 2.64 11 4 C10.11248047 4.09087891 10.11248047 4.09087891 9.20703125 4.18359375 C5.09021792 4.62012371 1.04455467 5.08671346 -3 6 C-2.01 5.67 -1.02 5.34 0 5 C0 3.35 0 1.7 0 0 Z " fill="#CE4BF6" transform="translate(186,76)"/>
<path d="M0 0 C0.33 1.65 0.66 3.3 1 5 C0.34 5 -0.32 5 -1 5 C-1 5.66 -1 6.32 -1 7 C-2.98 7.33 -4.96 7.66 -7 8 C-7.75 6.25 -7.75 6.25 -8 4 C-5.32518618 0.43358158 -4.60293628 0 0 0 Z " fill="#381756" transform="translate(218,103)"/>
<path d="M0 0 C3.63 0 7.26 0 11 0 C11 1.65 11 3.3 11 5 C10.30132812 4.98839844 9.60265625 4.97679688 8.8828125 4.96484375 C7.97273437 4.95582031 7.06265625 4.94679688 6.125 4.9375 C5.22007813 4.92589844 4.31515625 4.91429688 3.3828125 4.90234375 C0.9831415 4.83750743 0.9831415 4.83750743 -1 6 C-0.67 4.02 -0.34 2.04 0 0 Z " fill="#D14BFA" transform="translate(121,76)"/>
<path d="M0 0 C3.96 0 7.92 0 12 0 C11.34 1.32 10.68 2.64 10 4 C8.39125 3.938125 8.39125 3.938125 6.75 3.875 C3.34252515 3.9885825 1.79260369 4.21273364 -1 6 C-0.67 4.02 -0.34 2.04 0 0 Z " fill="#7E50F3" transform="translate(305,58)"/>
<path d="M0 0 C0.99 0.33 1.98 0.66 3 1 C3.99 1 4.98 1 6 1 C5.67 3.31 5.34 5.62 5 8 C2.92446352 8.5534764 1.15634036 9 -1 9 C-1.09765625 2.84765625 -1.09765625 2.84765625 -1 1 C-0.67 0.67 -0.34 0.34 0 0 Z " fill="#100A20" transform="translate(321,100)"/>
<path d="M0 0 C3.63 0 7.26 0 11 0 C10.67 1.32 10.34 2.64 10 4 C6.37 4.33 2.74 4.66 -1 5 C-0.67 3.35 -0.34 1.7 0 0 Z " fill="#C847F1" transform="translate(169,76)"/>
<path d="M0 0 C3.96 0 7.92 0 12 0 C11.67 1.32 11.34 2.64 11 4 C9.63875 3.9690625 9.63875 3.9690625 8.25 3.9375 C5.57327412 3.9889755 3.53011948 4.2215017 1 5 C0.67 3.35 0.34 1.7 0 0 Z " fill="#7D50F4" transform="translate(283,58)"/>
<path d="M0 0 C0.33 0 0.66 0 1 0 C1 1.65 1 3.3 1 5 C-3.62 5 -8.24 5 -13 5 C-13 4.01 -13 3.02 -13 2 C-8.71 2 -4.42 2 0 2 C0 1.34 0 0.68 0 0 Z " fill="#C04AFA" transform="translate(127,107)"/>
<path d="M0 0 C0.66 0.33 1.32 0.66 2 1 C1.67 3.64 1.34 6.28 1 9 C0.34 9 -0.32 9 -1 9 C-1.33 8.01 -1.66 7.02 -2 6 C-2.33 6.66 -2.66 7.32 -3 8 C-3.66 8 -4.32 8 -5 8 C-5 6.02 -5 4.04 -5 2 C-2.625 0.9375 -2.625 0.9375 0 0 Z " fill="#160F2D" transform="translate(126,100)"/>
<path d="M0 0 C5.61 0 11.22 0 17 0 C11.81596661 4.14722671 11.12621669 4.48048758 5 4 C5 3.01 5 2.02 5 1 C3.35 1 1.7 1 0 1 C0 0.67 0 0.34 0 0 Z " fill="#7858FC" transform="translate(200,102)"/>
<path d="M0 0 C3.3 0 6.6 0 10 0 C9.67 1.32 9.34 2.64 9 4 C5.7 4.33 2.4 4.66 -1 5 C-0.67 3.35 -0.34 1.7 0 0 Z " fill="#CF4CF8" transform="translate(301,76)"/>
<path d="M0 0 C5.61 0.33 11.22 0.66 17 1 C17 1.66 17 2.32 17 3 C11.39 3 5.78 3 0 3 C0 2.01 0 1.02 0 0 Z " fill="#C64BFC" transform="translate(317,109)"/>
<path d="M0 0 C-0.75 2.9375 -0.75 2.9375 -2 6 C-4 6.75 -4 6.75 -6 7 C-6.66 7.66 -7.32 8.32 -8 9 C-8 6.36 -8 3.72 -8 1 C-5.07175348 0.02391783 -3.04386724 -0.08226668 0 0 Z " fill="#100B1F" transform="translate(288,103)"/>
<path d="M0 0 C3.3 0 6.6 0 10 0 C10 1.32 10 2.64 10 4 C7.03 4 4.06 4 1 4 C0.67 2.68 0.34 1.36 0 0 Z " fill="#CD4BF7" transform="translate(289,76)"/>
<path d="M0 0 C1.98 0 3.96 0 6 0 C6.33 1.65 6.66 3.3 7 5 C4.36 5 1.72 5 -1 5 C-0.67 3.35 -0.34 1.7 0 0 Z " fill="#08030C" transform="translate(331,65)"/>
<path d="M0 0 C1.98 0 3.96 0 6 0 C6.33 1.65 6.66 3.3 7 5 C4.36 5 1.72 5 -1 5 C-0.67 3.35 -0.34 1.7 0 0 Z " fill="#07030B" transform="translate(148,65)"/>
<path d="M0 0 C1.65 0 3.3 0 5 0 C5.38218767 1.65614657 5.71395102 3.32457024 6 5 C5 6 5 6 1.4375 6.0625 C0.303125 6.041875 -0.83125 6.02125 -2 6 C-1.34 4.02 -0.68 2.04 0 0 Z " fill="#C4C8F2" transform="translate(272,44)"/>
<path d="M0 0 C0 3 0 3 -2.5 5.6875 C-3.325 6.450625 -4.15 7.21375 -5 8 C-4.01 8 -3.02 8 -2 8 C-2 8.66 -2 9.32 -2 10 C-3.65 10 -5.3 10 -7 10 C-7.3327958 6.33924624 -7.46170299 4.60499012 -5.1875 1.625 C-3 0 -3 0 0 0 Z " fill="#120718" transform="translate(170,103)"/>
<path d="M0 0 C0.66 0 1.32 0 2 0 C1.67 1.98 1.34 3.96 1 6 C3.64 6 6.28 6 9 6 C9 6.33 9 6.66 9 7 C3.06 7 -2.88 7 -9 7 C-7.68 5.68 -6.36 4.36 -5 3 C-3.68 3.66 -2.36 4.32 -1 5 C-0.67 3.35 -0.34 1.7 0 0 Z " fill="#B33AD8" transform="translate(278,107)"/>
<path d="M0 0 C2.1519437 3.22791555 2.20086443 4.28400809 2 8 C0.68 8.33 -0.64 8.66 -2 9 C-2 8.34 -2 7.68 -2 7 C-2.99 7 -3.98 7 -5 7 C-4.1875 5.0625 -4.1875 5.0625 -3 3 C-2.01 2.67 -1.02 2.34 0 2 C0 1.34 0 0.68 0 0 Z " fill="#491C6B" transform="translate(170,104)"/>
<path d="M0 0 C1.98 0 3.96 0 6 0 C6 1.65 6 3.3 6 5 C1.25 6.125 1.25 6.125 -1 5 C-0.67 3.35 -0.34 1.7 0 0 Z " fill="#110514" transform="translate(180,76)"/>
<path d="M0 0 C0.99 0.33 1.98 0.66 3 1 C3 1.66 3 2.32 3 3 C-1.29 3 -5.58 3 -10 3 C-10 2.34 -10 1.68 -10 1 C-6.85658007 -0.57170996 -3.44228549 -0.23175783 0 0 Z " fill="#9346EF" transform="translate(234,105)"/>
<path d="M0 0 C-0.33 1.98 -0.66 3.96 -1 6 C-2.98 6 -4.96 6 -7 6 C-7 4.35 -7 2.7 -7 1 C-4.53721199 -0.231394 -2.7204945 -0.07159196 0 0 Z " fill="#0C0716" transform="translate(153,103)"/>
<path d="M0 0 C0.99 0.33 1.98 0.66 3 1 C3 3.64 3 6.28 3 9 C-0.63 9 -4.26 9 -8 9 C-7.34 8.67 -6.68 8.34 -6 8 C-6 7.34 -6 6.68 -6 6 C-4.68 6 -3.36 6 -2 6 C-2 6.66 -2 7.32 -2 8 C-1.34 7.67 -0.68 7.34 0 7 C0 4.69 0 2.38 0 0 Z " fill="#AC42DC" transform="translate(296,105)"/>
<path d="M0 0 C0.98120464 3.05263664 0.98120464 4.94736336 0 8 C0.99 8.33 1.98 8.66 3 9 C0.36 9 -2.28 9 -5 9 C-4.5504955 7.68445015 -4.09010284 6.37261642 -3.625 5.0625 C-3.36976563 4.33160156 -3.11453125 3.60070312 -2.8515625 2.84765625 C-2 1 -2 1 0 0 Z " fill="#AF44E5" transform="translate(242,105)"/>
<path d="M0 0 C2.97 0 5.94 0 9 0 C8.34 2.31 7.68 4.62 7 7 C6.01 7 5.02 7 4 7 C3.896875 6.401875 3.79375 5.80375 3.6875 5.1875 C3.05822228 2.59565628 3.05822228 2.59565628 0 0 Z " fill="#6454EC" transform="translate(268,100)"/>
<path d="M0 0 C0 0.99 0 1.98 0 3 C-6.435 3.495 -6.435 3.495 -13 4 C-10.43098463 -1.13803073 -4.96480575 -0.16549352 0 0 Z " fill="#B547F5" transform="translate(236,108)"/>
<path d="M0 0 C1.98 0 3.96 0 6 0 C5.34 1.65 4.68 3.3 4 5 C2.02 5 0.04 5 -2 5 C-1.34 3.35 -0.68 1.7 0 0 Z " fill="#A148FA" transform="translate(158,105)"/>
<path d="M0 0 C0.66 0.33 1.32 0.66 2 1 C1.67 3.97 1.34 6.94 1 10 C0.01 10 -0.98 10 -2 10 C-2.25 3.375 -2.25 3.375 0 0 Z " fill="#221033" transform="translate(184,103)"/>
<path d="M0 0 C1.51400391 0.01740234 1.51400391 0.01740234 3.05859375 0.03515625 C4.07050781 0.04417969 5.08242188 0.05320312 6.125 0.0625 C7.29869141 0.07990234 7.29869141 0.07990234 8.49609375 0.09765625 C8.49609375 0.75765625 8.49609375 1.41765625 8.49609375 2.09765625 C5.19609375 2.42765625 1.89609375 2.75765625 -1.50390625 3.09765625 C-1.83390625 4.74765625 -2.16390625 6.39765625 -2.50390625 8.09765625 C-2.83390625 8.09765625 -3.16390625 8.09765625 -3.50390625 8.09765625 C-3.54632348 5.7647085 -3.54483562 3.43063058 -3.50390625 1.09765625 C-2.50390625 0.09765625 -2.50390625 0.09765625 0 0 Z " fill="#DD4BF7" transform="translate(253.50390625,79.90234375)"/>
<path d="M0 0 C0.99 0 1.98 0 3 0 C2.125 5.75 2.125 5.75 1 8 C2.65 8 4.3 8 6 8 C6 8.33 6 8.66 6 9 C3.69 9 1.38 9 -1 9 C-0.67 6.03 -0.34 3.06 0 0 Z " fill="#0B0614" transform="translate(155,103)"/>
<path d="M0 0 C0.99 0.33 1.98 0.66 3 1 C3.33 3.31 3.66 5.62 4 8 C3.34 8 2.68 8 2 8 C1.67 6.35 1.34 4.7 1 3 C0.34 3 -0.32 3 -1 3 C-1 3.99 -1 4.98 -1 6 C-1.66 6 -2.32 6 -3 6 C-2.42655063 3.13275314 -2.1385485 2.1385485 0 0 Z " fill="#0B0511" transform="translate(293,104)"/>
<path d="M0 0 C1.62463842 -0.05395478 3.24978541 -0.09277195 4.875 -0.125 C5.77992188 -0.14820312 6.68484375 -0.17140625 7.6171875 -0.1953125 C10 0 10 0 12 2 C9.78704384 3.10647808 8.45327301 3.19588368 6 3.25 C5.29875 3.27578125 4.5975 3.3015625 3.875 3.328125 C3.25625 3.21984375 2.6375 3.1115625 2 3 C1.34 2.01 0.68 1.02 0 0 Z " fill="#E948EB" transform="translate(172,86)"/>
<path d="M0 0 C3.3 0 6.6 0 10 0 C9.67 1.98 9.34 3.96 9 6 C8.67 5.01 8.34 4.02 8 3 C7.05125 3.061875 6.1025 3.12375 5.125 3.1875 C4.09375 3.125625 3.0625 3.06375 2 3 C1.34 2.01 0.68 1.02 0 0 Z " fill="#A147F6" transform="translate(201,106)"/>
<path d="M0 0 C1.98 0 3.96 0 6 0 C6.33 1.32 6.66 2.64 7 4 C4.36 4 1.72 4 -1 4 C-0.67 2.68 -0.34 1.36 0 0 Z " fill="#C94BFC" transform="translate(203,109)"/>
<path d="M0 0 C0.33 0.66 0.66 1.32 1 2 C1.66 2 2.32 2 3 2 C3 1.34 3 0.68 3 0 C4.65 0.33 6.3 0.66 8 1 C8 1.99 8 2.98 8 4 C5.36 4 2.72 4 0 4 C0 2.68 0 1.36 0 0 Z " fill="#290F36" transform="translate(252,109)"/>
<path d="M0 0 C1.32 0.33 2.64 0.66 4 1 C3.34 2.98 2.68 4.96 2 7 C2.99 7.33 3.98 7.66 5 8 C3.68 8.33 2.36 8.66 1 9 C1 7.68 1 6.36 1 5 C-0.32 4.67 -1.64 4.34 -3 4 C-2.01 3.67 -1.02 3.34 0 3 C0 2.01 0 1.02 0 0 Z " fill="#A038DC" transform="translate(306,106)"/>
<path d="M0 0 C2.31 0 4.62 0 7 0 C7 0.99 7 1.98 7 3 C4.69 3.66 2.38 4.32 0 5 C0 4.34 0 3.68 0 3 C-0.66 2.67 -1.32 2.34 -2 2 C-1.34 2 -0.68 2 0 2 C0 1.34 0 0.68 0 0 Z " fill="#AE46F7" transform="translate(260,107)"/>
<path d="M0 0 C0.99 0.66 1.98 1.32 3 2 C2.67 3.32 2.34 4.64 2 6 C0.02 6.33 -1.96 6.66 -4 7 C-4 6.34 -4 5.68 -4 5 C-3.01 4.67 -2.02 4.34 -1 4 C-0.26676204 1.98491642 -0.26676204 1.98491642 0 0 Z " fill="#251032" transform="translate(200,106)"/>
<path d="M0 0 C2.64 0 5.28 0 8 0 C8 0.99 8 1.98 8 3 C5.36 3 2.72 3 0 3 C0 2.01 0 1.02 0 0 Z " fill="#8D4EF9" transform="translate(326,104)"/>
<path d="M0 0 C0.99 1.32 1.98 2.64 3 4 C2.34 5.32 1.68 6.64 1 8 C0.01 8 -0.98 8 -2 8 C-1.47731534 5.23723823 -0.89130413 2.6739124 0 0 Z " fill="#0B040E" transform="translate(244,105)"/>
<path d="M0 0 C2.64 0 5.28 0 8 0 C7.67 1.32 7.34 2.64 7 4 C4.36 3.67 1.72 3.34 -1 3 C-0.67 2.01 -0.34 1.02 0 0 Z " fill="#A93FE5" transform="translate(132,108)"/>
<path d="M0 0 C0.66 0.66 1.32 1.32 2 2 C3.98821313 2.39764263 5.98944339 2.73775349 8 3 C8 3.66 8 4.32 8 5 C5.36 5 2.72 5 0 5 C0 3.35 0 1.7 0 0 Z " fill="#1D0B25" transform="translate(187,108)"/>
<path d="M0 0 C0.99 0.33 1.98 0.66 3 1 C3 2.65 3 4.3 3 6 C1.68 6 0.36 6 -1 6 C-1.042721 4.33388095 -1.04063832 2.66617115 -1 1 C-0.67 0.67 -0.34 0.34 0 0 Z " fill="#140C27" transform="translate(269,102)"/>
<path d="M0 0 C0 0.66 0 1.32 0 2 C-4.455 2.495 -4.455 2.495 -9 3 C-9 2.34 -9 1.68 -9 1 C-5.8035914 -0.06546953 -3.34252724 -0.07427838 0 0 Z " fill="#0A0715" transform="translate(230,103)"/>
<path d="M0 0 C1.98 0 3.96 0 6 0 C6 0.99 6 1.98 6 3 C3.69 3 1.38 3 -1 3 C-0.67 2.01 -0.34 1.02 0 0 Z " fill="#6E5FFE" transform="translate(328,101)"/>
<path d="M0 0 C1.98 0 3.96 0 6 0 C5.360625 0.78375 4.72125 1.5675 4.0625 2.375 C2.01857687 4.79539281 2.01857687 4.79539281 1 7 C0.34 6.67 -0.32 6.34 -1 6 C-0.67 4.02 -0.34 2.04 0 0 Z " fill="#6052E5" transform="translate(128,100)"/>
<path d="M0 0 C1.2077558 3.62326739 0.54311128 4.64146369 -1 8 C-1.66 8 -2.32 8 -3 8 C-3.33 6.02 -3.66 4.04 -4 2 C-3.01 2 -2.02 2 -1 2 C-0.67 1.34 -0.34 0.68 0 0 Z " fill="#220F2F" transform="translate(143,105)"/>
<path d="M0 0 C2.02408755 0.09002398 4.04544287 0.24641038 6.0625 0.4375 C7.71958984 0.59025391 7.71958984 0.59025391 9.41015625 0.74609375 C10.26480469 0.82988281 11.11945313 0.91367187 12 1 C12 1.33 12 1.66 12 2 C2.62307692 3.41538462 2.62307692 3.41538462 -1 1 C-0.67 0.67 -0.34 0.34 0 0 Z " fill="#473D47" transform="translate(275,42)"/>
<path d="M0 0 C0.99 0 1.98 0 3 0 C2.67 1.98 2.34 3.96 2 6 C1.01 6 0.02 6 -1 6 C-0.67 4.02 -0.34 2.04 0 0 Z " fill="#2E143E" transform="translate(309,107)"/>
<path d="M0 0 C1.485 0.99 1.485 0.99 3 2 C2.67 3.65 2.34 5.3 2 7 C1.01 7 0.02 7 -1 7 C-0.67 4.69 -0.34 2.38 0 0 Z " fill="#250F33" transform="translate(237,106)"/>
<path d="M0 0 C0.33 0 0.66 0 1 0 C1 1.65 1 3.3 1 5 C2.32 5 3.64 5 5 5 C5 5.66 5 6.32 5 7 C3.02 7.33 1.04 7.66 -1 8 C-0.67 5.36 -0.34 2.72 0 0 Z " fill="#2E1244" transform="translate(145,104)"/>
<path d="M0 0 C0.33 0.66 0.66 1.32 1 2 C3.52733235 2.65555119 3.52733235 2.65555119 6 3 C6 3.33 6 3.66 6 4 C4.35 4 2.7 4 1 4 C1 4.66 1 5.32 1 6 C0.34 6 -0.32 6 -1 6 C-0.67 4.02 -0.34 2.04 0 0 Z " fill="#100717" transform="translate(254,105)"/>
<path d="M0 0 C1.98 0 3.96 0 6 0 C6 0.99 6 1.98 6 3 C4.02 3 2.04 3 0 3 C0 2.01 0 1.02 0 0 Z " fill="#9A4BFE" transform="translate(114,105)"/>
<path d="M0 0 C2.86724686 0.57344937 3.8614515 0.8614515 6 3 C5.67 3.99 5.34 4.98 5 6 C3.68 5.67 2.36 5.34 1 5 C1.33 3.68 1.66 2.36 2 1 C1.34 0.67 0.68 0.34 0 0 Z " fill="#1B0E31" transform="translate(301,103)"/>
<path d="M0 0 C1.485 0.99 1.485 0.99 3 2 C2.67 2.66 2.34 3.32 2 4 C2.66 4 3.32 4 4 4 C4 4.66 4 5.32 4 6 C2.68 6.33 1.36 6.66 0 7 C0 4.69 0 2.38 0 0 Z " fill="#42186E" transform="translate(175,103)"/>
<path d="M0 0 C0.66 0 1.32 0 2 0 C1.67 2.31 1.34 4.62 1 7 C0.34 7 -0.32 7 -1 7 C-1.04254356 5.00045254 -1.04080783 2.99958364 -1 1 C-0.67 0.67 -0.34 0.34 0 0 Z " fill="#080612" transform="translate(122,101)"/>
<path d="M0 0 C2.475 0.99 2.475 0.99 5 2 C5 2.66 5 3.32 5 4 C4.38125 4.12375 3.7625 4.2475 3.125 4.375 C0.80879168 4.87197356 0.80879168 4.87197356 -1 7 C-0.67 4.69 -0.34 2.38 0 0 Z " fill="#08040C" transform="translate(281,105)"/>
<path d="M0 0 C0.66 0.99 1.32 1.98 2 3 C1.125 5.6875 1.125 5.6875 0 8 C-0.99 7.34 -1.98 6.68 -3 6 C-2.34 6 -1.68 6 -1 6 C-1 5.34 -1 4.68 -1 4 C-1.99 3.67 -2.98 3.34 -4 3 C-3.01 2.67 -2.02 2.34 -1 2 C-0.67 1.34 -0.34 0.68 0 0 Z " fill="#7F36D2" transform="translate(153,103)"/>
<path d="M0 0 C0.99 0 1.98 0 3 0 C3 0.99 3 1.98 3 3 C1.35 3.66 -0.3 4.32 -2 5 C-1.125 1.125 -1.125 1.125 0 0 Z " fill="#080510" transform="translate(167,103)"/>
<path d="M0 0 C2.64 0 5.28 0 8 0 C7.67 0.99 7.34 1.98 7 3 C4.69 2.67 2.38 2.34 0 2 C0 1.34 0 0.68 0 0 Z " fill="#7B54F8" transform="translate(158,103)"/>
<path d="M0 0 C2.97 0 5.94 0 9 0 C8.01 1.485 8.01 1.485 7 3 C4.5 3.375 4.5 3.375 2 3 C1.34 2.01 0.68 1.02 0 0 Z " fill="#797AD9" transform="translate(270,51)"/>
<path d="M0 0 C0 3 0 3 0 3 Z M-4 4 C-3.34 4.33 -2.68 4.66 -2 5 C-3.3125 6.5 -3.3125 6.5 -5 8 C-5.99 8 -6.98 8 -8 8 C-8 7.34 -8 6.68 -8 6 C-6.125 4.9375 -6.125 4.9375 -4 4 Z " fill="#FDD8FC" transform="translate(299,32)"/>
</svg>
