<?xml version="1.0" encoding="UTF-8"?>
<svg version="1.1" xmlns="http://www.w3.org/2000/svg" width="512" height="512">
<path d="M0 0 C1.66650123 -0.00417737 3.33299962 -0.0096571 4.99949276 -0.01631981 C9.56002483 -0.03074021 14.12037566 -0.02654036 18.6809175 -0.019153 C23.60673313 -0.01441519 28.53250989 -0.02693661 33.45831299 -0.03717041 C43.10107973 -0.05435176 52.74378128 -0.05519978 62.38655935 -0.04995751 C70.2256606 -0.04591331 78.0647426 -0.04736233 85.90384293 -0.05270576 C87.02026929 -0.05345419 88.13669566 -0.05420261 89.28695313 -0.05497371 C91.55509702 -0.05650521 93.8232409 -0.05804356 96.09138478 -0.05958868 C117.35360282 -0.07331134 138.61578404 -0.06787769 159.87800123 -0.05640347 C179.32060689 -0.04647151 198.76311738 -0.05941156 218.20570837 -0.08333766 C238.180192 -0.10773269 258.1546313 -0.11733552 278.12912953 -0.11068493 C289.33896154 -0.1071936 300.54872037 -0.10941917 311.75854111 -0.12693596 C321.30124082 -0.14166296 330.84381581 -0.1422868 340.3865131 -0.12486505 C345.25283767 -0.11635682 350.11893947 -0.11420126 354.98525238 -0.1295166 C359.44514624 -0.1433788 363.9046268 -0.13858086 368.36449684 -0.11927737 C369.97274415 -0.11552175 371.58102469 -0.11842662 373.18924235 -0.12888902 C389.33094222 -0.22638378 401.28494306 3.56126497 413.290802 14.70018005 C422.43942802 24.36665282 426.0147251 35.68451542 425.92848206 48.7726593 C425.93656036 50.26735565 425.93656036 50.26735565 425.94480187 51.79224789 C425.95902026 55.10527435 425.95199276 58.4178978 425.94485474 61.73094177 C425.9505615 64.11686014 425.95752695 66.50277578 425.96565247 68.88868713 C425.98170768 74.68131677 425.98369128 80.47382171 425.97843956 86.26646887 C425.97438677 90.97819036 425.97585454 95.6898799 425.98118782 100.40159988 C425.98193624 101.07396845 425.98268466 101.74633702 425.98345577 102.43908039 C425.98498735 103.80530429 425.9865257 105.17152817 425.98807073 106.53775205 C426.00177714 119.33035867 425.9963713 132.12290403 425.98488552 144.91550924 C425.97495607 156.5983075 425.98789208 168.28094731 426.01181971 179.96372114 C426.03624939 191.98292402 426.04580904 204.00205322 426.03916699 216.02128041 C426.03568321 222.75982276 426.03785086 229.49824334 426.05541801 236.23676682 C426.07091704 242.57507224 426.06689837 248.91307584 426.04811287 255.25136948 C426.04443518 257.57164453 426.04751139 259.89194209 426.05799866 262.21219635 C426.13586102 280.86960972 424.41395846 293.92578147 411.228302 308.13768005 C399.50094798 319.23678297 386.580442 320.83872665 371.081604 320.77536011 C369.41510277 320.77953748 367.74860439 320.78501721 366.08211124 320.79167992 C361.52157917 320.80610032 356.96122835 320.80190047 352.4006865 320.79451311 C347.47487088 320.7897753 342.54909411 320.80229672 337.62329102 320.81253052 C327.98052428 320.82971186 318.33782272 320.83055989 308.69504465 320.82531761 C300.85594341 320.82127342 293.0168614 320.82272244 285.17776108 320.82806587 C284.06133471 320.82881429 282.94490834 320.82956272 281.79465088 320.83033382 C279.52650699 320.83186532 277.2583631 320.83340367 274.99021922 320.83494879 C253.72800119 320.84867144 232.46581997 320.84323779 211.20360278 320.83176357 C191.76099711 320.82183161 172.31848662 320.83477167 152.87589563 320.85869776 C132.90141201 320.8830928 112.9269727 320.89269562 92.95247447 320.88604504 C81.74264246 320.8825537 70.53288363 320.88477928 59.3230629 320.90229607 C49.78036318 320.91702307 40.23778819 320.91764691 30.6950909 320.90022516 C25.82876634 320.89171693 20.96266453 320.88956136 16.09635162 320.90487671 C11.63645777 320.91873891 7.17697721 320.91394096 2.71710716 320.89463747 C1.10885985 320.89088186 -0.49942068 320.89378673 -2.10763834 320.90424912 C-18.24933822 321.00174389 -30.20333905 317.21409513 -42.209198 306.07518005 C-51.35782401 296.40870728 -54.93312109 285.09084468 -54.84687805 272.00270081 C-54.85226359 271.00623657 -54.85764913 270.00977234 -54.86319786 268.98311222 C-54.87741625 265.67008576 -54.87038876 262.35746231 -54.86325073 259.04441833 C-54.8689575 256.65849997 -54.87592294 254.27258433 -54.88404846 251.88667297 C-54.90010368 246.09404334 -54.90208727 240.3015384 -54.89683556 234.50889124 C-54.89278276 229.79716974 -54.89425054 225.08548021 -54.89958382 220.37376022 C-54.90033224 219.70139165 -54.90108066 219.02902309 -54.90185176 218.33627971 C-54.90338335 216.97005582 -54.9049217 215.60383194 -54.90646673 214.23760806 C-54.92017314 201.44500143 -54.91476729 188.65245608 -54.90328152 175.85985087 C-54.89335206 164.17705261 -54.90628808 152.49441279 -54.93021571 140.81163897 C-54.95464539 128.79243609 -54.96420504 116.77330689 -54.95756298 104.7540797 C-54.95407921 98.01553735 -54.95624686 91.27711676 -54.97381401 84.53859329 C-54.98931304 78.20028787 -54.98529436 71.86228426 -54.96650887 65.52399063 C-54.96283118 63.20371558 -54.96590738 60.88341802 -54.97639465 58.56316376 C-55.05425701 39.90575038 -53.33235445 26.84957864 -40.146698 12.63768005 C-28.41934397 1.53857714 -15.49883799 -0.06336654 0 0 Z M129.7517395 81.34080505 C121.74851128 91.35469652 121.39004507 102.22303703 121.39553833 114.58616638 C121.39217972 115.68157242 121.38882111 116.77697845 121.38536072 117.90557861 C121.37589752 121.51030119 121.37390996 125.11497709 121.37283325 128.7197113 C121.36961755 131.23783385 121.36625324 133.75595621 121.36274719 136.27407837 C121.35676757 141.54705608 121.35486311 146.82002204 121.35549927 152.09300232 C121.35609944 158.16303341 121.3455537 164.23297547 121.3297556 170.30298406 C121.31503501 176.17092539 121.31151307 182.03883186 121.31210899 187.90678978 C121.31093318 190.39014232 121.30653391 192.87349561 121.29877663 195.35683632 C121.28891915 198.83830162 121.29187749 202.31954076 121.29788208 205.80101013 C121.29226257 206.81487793 121.28664307 207.82874573 121.28085327 208.87333679 C121.33077501 220.332023 122.66182918 231.77811644 130.55252075 240.6493988 C137.46893017 247.1795515 145.54019018 251.44955735 155.165802 251.63768005 C155.94181763 251.6634613 156.71783325 251.68924255 157.5173645 251.71580505 C166.82753199 250.70539928 173.93525883 246.68672323 181.665802 241.63768005 C183.79320582 240.27799153 185.92081579 238.91862552 188.0486145 237.55955505 C189.66558228 236.51831482 189.66558228 236.51831482 191.31521606 235.45603943 C196.3615167 232.22017363 201.45194762 229.05602247 206.540802 225.88768005 C208.53452043 224.64195248 210.52800932 223.39585747 212.52127075 222.1493988 C216.58560755 219.60910555 220.65080461 217.07019617 224.71658325 214.5322113 C229.72002804 211.40867581 234.72094265 208.28112216 239.7204895 205.15135193 C242.43982479 203.45082577 245.16206652 201.7550315 247.884552 200.05955505 C267.60958185 188.96641091 267.60958185 188.96641091 280.0329895 170.95018005 C281.89321707 161.56318555 281.7311526 151.62714751 276.540802 143.38768005 C276.20177856 142.77795349 275.86275513 142.16822693 275.51345825 141.5400238 C272.06441595 135.9552756 266.98584752 132.85691415 261.540802 129.38768005 C260.90400513 128.97953064 260.26720825 128.57138123 259.6111145 128.15086365 C253.94533682 124.52418672 248.24514563 120.95327674 242.540802 117.38768005 C240.63324182 116.19368257 238.72568994 114.99967183 236.81814575 113.8056488 C231.75441584 110.63778606 226.68821152 107.47390019 221.62136841 104.3110199 C217.58874993 101.79326998 213.55722229 99.27377937 209.52639771 96.75315857 C207.54284719 95.51378417 205.55831499 94.27597945 203.57278442 93.03977966 C198.37449282 89.8005982 193.19824545 86.53189028 188.0486145 83.21580505 C186.44566528 82.19196716 186.44566528 82.19196716 184.81033325 81.14744568 C182.77805674 79.84855591 180.75155832 78.54056084 178.73220825 77.22166443 C161.96276851 66.55126292 143.84622223 65.95381518 129.7517395 81.34080505 Z " fill="#000000" transform="translate(70.45919799804688,175.61231994628906)"/>
<path d="M0 0 C1.25781159 -0.00538554 2.51562317 -0.01077108 3.81155026 -0.01631981 C7.27754965 -0.03069615 10.74330968 -0.02655442 14.20932174 -0.019153 C17.95721744 -0.01440412 21.70506262 -0.02694634 25.45294189 -0.03717041 C32.7856214 -0.05433032 40.11821511 -0.05520425 47.45090948 -0.04995751 C53.41358232 -0.04590924 59.37622988 -0.04736715 65.33890152 -0.05270576 C66.61388905 -0.0538284 66.61388905 -0.0538284 67.91463391 -0.05497371 C69.6416258 -0.05650525 71.36861768 -0.0580436 73.09560956 -0.05958868 C89.2760597 -0.07330362 105.45646143 -0.06788316 121.63691045 -0.05640347 C136.42362861 -0.0464727 151.2102216 -0.05941084 165.99692045 -0.08333766 C181.19823481 -0.10774911 196.39949092 -0.11733147 211.60082448 -0.11068493 C220.12788033 -0.10719719 228.65483996 -0.10939533 237.18188095 -0.12693596 C244.44089113 -0.14168358 251.69973734 -0.14226007 258.95874439 -0.12486505 C262.65854004 -0.11637355 266.35804307 -0.11415972 270.05782318 -0.1295166 C274.07768385 -0.14599477 278.0968435 -0.13116907 282.11669922 -0.11352539 C283.273336 -0.1231304 284.42997278 -0.1327354 285.62165916 -0.14263147 C299.83635675 -0.014715 310.60976892 5.1202254 320.93533325 14.70018005 C334.5151336 29.04864835 333.18533325 44.52894413 333.18533325 64.38768005 C206.46533325 64.38768005 79.74533325 64.38768005 -50.81466675 64.38768005 C-50.81466675 28.06412463 -50.81466675 28.06412463 -36.50216675 12.63768005 C-25.951538 2.65226356 -14.1391944 -0.07318692 0 0 Z " fill="#000000" transform="translate(114.81466674804688,79.61231994628906)"/>
<path d="M0 0 C0.86493613 -0.00538554 1.72987227 -0.01077108 2.62101859 -0.01631981 C5.49494582 -0.03053102 8.36840799 -0.02351262 11.24235535 -0.01637268 C13.31285978 -0.02207989 15.38336107 -0.0290455 17.45385742 -0.03717041 C23.06143493 -0.05507985 28.66885576 -0.05393734 34.27645326 -0.04822803 C38.96559955 -0.04513243 43.65471591 -0.05123289 48.34385794 -0.05726677 C59.41128616 -0.07130366 70.47863718 -0.06975815 81.54606628 -0.05836487 C92.94490726 -0.04688935 104.3435128 -0.06095185 115.74232274 -0.08776134 C125.54559983 -0.10995076 135.3488032 -0.11654826 145.1521036 -0.11068493 C150.99976311 -0.10732134 156.84727178 -0.10969054 162.69491005 -0.12693596 C168.1968474 -0.1424542 173.69843738 -0.13839533 179.20036125 -0.11963081 C181.21263693 -0.11595819 183.22493862 -0.11901443 185.23719025 -0.1295166 C200.69982554 -0.20401827 212.55805718 1.28404775 224.95011902 11.38768005 C225.58691589 11.8878363 226.22371277 12.38799255 226.87980652 12.90330505 C233.26813328 18.5250326 234.7972399 24.08192183 238.95011902 32.38768005 C145.23011902 32.38768005 51.51011902 32.38768005 -45.04988098 32.38768005 C-37.04348013 16.37487834 -30.4139703 7.7900868 -13.92995167 1.83134365 C-9.19796907 0.27841152 -4.95078823 -0.037641 0 0 Z " fill="#000000" transform="translate(159.0498809814453,15.612319946289063)"/>
<path d="M0 0 C4.06151744 0.81230349 5.79063287 1.22450738 9.08984375 3.23046875 C9.86231445 3.69622314 10.63478516 4.16197754 11.43066406 4.6418457 C12.25791992 5.15191162 13.08517578 5.66197754 13.9375 6.1875 C14.8150293 6.72141357 15.69255859 7.25532715 16.59667969 7.80541992 C24.90186899 12.88334496 33.10613826 18.11954342 41.3046875 23.3671875 C47.13721093 27.09637606 53.0027789 30.77124303 58.875 34.4375 C59.85573486 35.05262451 60.83646973 35.66774902 61.84692383 36.30151367 C66.57579169 39.2628905 71.31544671 42.20102236 76.09924316 45.07307434 C77.79395345 46.09196966 79.48417082 47.11832591 81.17431641 48.14477539 C83.30803348 49.43959651 85.44940582 50.72190723 87.59912109 51.98999023 C88.55512207 52.57337158 89.51112305 53.15675293 90.49609375 53.7578125 C91.76731079 54.51795654 91.76731079 54.51795654 93.06420898 55.29345703 C95.46781901 57.41241706 95.70210122 58.8679022 96 62 C83.47349175 70.18648162 70.81527628 78.15044506 58.11279297 86.06054688 C53.07170211 89.20144302 48.03604738 92.35102609 43 95.5 C37.32126376 99.04991459 31.64226346 102.59940235 25.96139526 106.14590454 C24.28342022 107.19348279 22.60557643 108.24127127 20.92773438 109.2890625 C18.8107764 110.6110447 16.69359839 111.93267464 14.57617188 113.25390625 C13.15208008 114.14335937 13.15208008 114.14335937 11.69921875 115.05078125 C10.86221436 115.57325439 10.02520996 116.09572754 9.1628418 116.6340332 C7.42586379 117.73104098 5.70935588 118.86042941 4 120 C2.68 120 1.36 120 0 120 C0 80.4 0 40.8 0 0 Z " fill="#000000" transform="translate(224,276)"/>
</svg>
