<?xml version="1.0" encoding="UTF-8"?>
<svg version="1.1" xmlns="http://www.w3.org/2000/svg" width="32" height="32">
<path d="M0 0 C1.32 0 2.64 0 4 0 C5.9375 2.1875 5.9375 2.1875 8 5 C8.886875 5.804375 9.77375 6.60875 10.6875 7.4375 C13.41862408 10.46388073 14 11.94463968 14 16 C12.75 19.3125 12.75 19.3125 11 22 C10.01 22.33 9.02 22.66 8 23 C8.19529297 21.87851562 8.19529297 21.87851562 8.39453125 20.734375 C8.53246094 19.74953125 8.67039062 18.7646875 8.8125 17.75 C8.96332031 16.77546875 9.11414063 15.8009375 9.26953125 14.796875 C9.28500621 11.75335415 9.28500621 11.75335415 6.51171875 9.640625 C5.68285156 9.09921875 4.85398437 8.5578125 4 8 C4.02356567 8.93066284 4.02356567 8.93066284 4.04760742 9.88012695 C4.10996214 12.69082528 4.14899148 15.50137812 4.1875 18.3125 C4.22520508 19.77719727 4.22520508 19.77719727 4.26367188 21.27148438 C4.27817383 22.67817383 4.27817383 22.67817383 4.29296875 24.11328125 C4.31653442 25.40939331 4.31653442 25.40939331 4.34057617 26.73168945 C3.92778299 29.48098083 3.18357429 30.33562746 1 32 C-1.72417854 32.60964479 -4.26063427 32.51149983 -7 32 C-9.125 30.3125 -9.125 30.3125 -10 28 C-9.33228817 25.60736593 -8.77902615 23.77902615 -7 22 C-4.69 22 -2.38 22 0 22 C0 14.74 0 7.48 0 0 Z " fill="#FF8AFB" transform="translate(14,0)"/>
</svg>
