<?xml version="1.0" encoding="UTF-8"?>
<svg version="1.1" xmlns="http://www.w3.org/2000/svg" width="32" height="32">
<path d="M0 0 C4.8846525 2.26787438 7.73212562 5.1153475 10 10 C10.75381535 15.5997712 10.77303575 20.33499991 8.375 25.5 C3.80134327 30.3143755 0.6912538 32.25156236 -6 32.5 C-12.6912538 32.25156236 -15.80134327 30.3143755 -20.375 25.5 C-22.77303575 20.33499991 -22.75381535 15.5997712 -22 10 C-17.52212837 0.3553534 -9.85292056 -1.32635469 0 0 Z M-10 11 C-10 14.3 -10 17.6 -10 21 C-6.59687262 19.94124926 -3.98646769 18.99097846 -1 17 C-1 16.34 -1 15.68 -1 15 C-2.670625 14.01 -2.670625 14.01 -4.375 13 C-5.00148438 12.62875 -5.62796875 12.2575 -6.2734375 11.875 C-7.97472667 10.84931652 -7.97472667 10.84931652 -10 11 Z " fill="#000000" transform="translate(22,0)"/>
</svg>
